G04 start of page 3 for group 5 idx 5 *
G04 Title: (unknown), bottom *
G04 Creator: pcb 1.99z *
G04 CreationDate: Fri 07 Mar 2014 08:36:24 PM GMT UTC *
G04 For: jpuls *
G04 Format: Gerber/RS-274X *
G04 PCB-Dimensions (mil): 5000.00 2020.00 *
G04 PCB-Coordinate-Origin: lower left *
%MOIN*%
%FSLAX25Y25*%
%LNBOTTOM*%
%ADD58C,0.0472*%
%ADD57C,0.0420*%
%ADD56C,0.0280*%
%ADD55C,0.0300*%
%ADD54C,0.0591*%
%ADD53C,0.0551*%
%ADD52C,0.1250*%
%ADD51C,0.0350*%
%ADD50C,0.0200*%
%ADD49C,0.2500*%
%ADD48C,0.0360*%
%ADD47C,0.0787*%
%ADD46C,0.0720*%
%ADD45C,0.0600*%
%ADD44C,0.0900*%
%ADD43C,0.0800*%
%ADD42C,0.0550*%
%ADD41C,0.1000*%
%ADD40C,0.0001*%
%ADD39C,0.0984*%
%ADD38C,0.0886*%
%ADD37C,0.0100*%
%ADD36C,0.0400*%
G54D36*X98959Y83000D02*X98723Y82764D01*
X82000Y94000D02*X108000D01*
X58723Y82764D02*Y78764D01*
X60723Y76764D01*
X106723D01*
X61486Y70000D02*X61989Y69497D01*
X101000Y71041D02*X106723Y76764D01*
X98959Y83000D02*X151000D01*
X159000Y91000D01*
X151000Y144000D02*Y146000D01*
G54D37*X134000Y144000D02*X136000D01*
X134000D02*X135000D01*
X142000Y137000D01*
Y92000D01*
X146000Y88000D01*
G54D36*X151000Y146000D02*X177000Y172000D01*
X151000Y144000D02*X183000Y112000D01*
Y98000D01*
X159000Y91000D02*X178000D01*
X177000Y172000D02*X201800D01*
X202000Y171800D01*
X200000Y126000D02*X202000Y128000D01*
X120000Y106000D02*X122000D01*
X183000Y98000D02*X202000D01*
X122000Y106000D02*X134000Y94000D01*
X108000D02*X120000Y106000D01*
X144000Y64000D02*X160000D01*
Y43000D01*
X157000Y27000D02*X105000D01*
X101000Y31000D01*
Y71041D01*
X160000Y43000D02*X178000Y25000D01*
X224000Y15000D02*X169000D01*
X157000Y27000D01*
X178000Y25000D02*X216000D01*
X178000Y91000D02*Y35000D01*
X61000Y5000D02*X354000D01*
Y25000D01*
X69723Y49764D02*X24617D01*
G54D37*X88000Y39000D02*X53000D01*
G54D36*X61989Y69497D02*X54503D01*
G54D37*X59500Y16000D02*Y24500D01*
X53000Y39000D02*X48000Y34000D01*
G54D36*X59500Y16000D02*Y6500D01*
X61000Y5000D01*
X54503Y69497D02*X41000Y83000D01*
X17975D01*
X17914Y83061D01*
X24617Y49764D02*X17914Y43061D01*
G54D37*X48000Y34000D02*X10000D01*
X6000Y38000D01*
Y60000D01*
X10000Y64000D01*
X19000D01*
X19939Y63061D01*
X289723Y91764D02*Y24764D01*
X295723Y18764D01*
X297500Y89987D02*Y112000D01*
X285787D01*
X261723Y64764D02*Y81764D01*
X262723Y82764D01*
X307723Y79764D02*X297500Y89987D01*
X270488Y64833D02*X272792D01*
G54D36*X224000Y44000D02*Y15000D01*
G54D37*X272792Y64833D02*X277723Y69764D01*
Y86764D01*
X285787Y112000D02*X260157Y137630D01*
G54D36*X307723Y33764D02*X327723D01*
X343723Y49764D01*
G54D37*X308723Y103764D02*Y128764D01*
X307723Y129764D01*
G54D36*X324723Y142764D02*Y153764D01*
X344723D02*X366523Y175564D01*
Y187764D01*
X373723Y153764D02*Y167764D01*
X381723Y175764D01*
X395723D01*
Y186764D01*
X396723Y187764D01*
X422723Y136764D02*X330723D01*
X324723Y142764D01*
G54D37*X357723Y123764D02*Y136764D01*
G54D36*X436000Y123000D02*X383000D01*
X377000Y117000D01*
X384723Y49764D02*Y6764D01*
X396723Y14764D02*Y29764D01*
X384723Y6764D02*X389723Y1764D01*
X416723D01*
X418723Y3764D01*
Y14664D01*
X418623Y14764D01*
X396723Y29764D02*X402723Y35764D01*
X418723Y14277D02*Y18723D01*
X430000Y30000D01*
X418723Y18723D02*X435000Y35000D01*
X402723Y35764D02*X422723D01*
X435000Y35000D02*X489000D01*
X480487Y35513D02*X481000Y35000D01*
X422723Y35764D02*X426723Y39764D01*
X354000Y25000D02*X359000Y30000D01*
Y64000D01*
X426723Y39764D02*Y49764D01*
X446723D02*Y59764D01*
X433723Y72764D01*
X430000Y64000D02*X431000Y65000D01*
X433723Y72764D02*X346723D01*
X343723Y49764D02*Y69764D01*
X346723Y72764D01*
X371723Y81764D02*X448723D01*
X359000Y64000D02*X430000D01*
X448723Y81764D02*X466723Y99764D01*
X479723D01*
X480723Y100764D01*
X481723Y79764D02*X480723Y80764D01*
X480487Y81000D02*Y35513D01*
X428723Y153764D02*Y142764D01*
X448723Y153764D02*X440523Y161964D01*
Y187764D01*
X428723Y142764D02*X422723Y136764D01*
X466487Y168000D02*X452500D01*
X489000Y149000D02*X485000D01*
X466000Y168000D01*
X480723Y120764D02*Y140723D01*
X489000Y149000D01*
G54D38*X17900Y158400D03*
Y138400D03*
Y118400D03*
X17914Y83061D03*
Y63061D03*
Y43061D03*
G54D39*X60000Y178000D03*
X148976D03*
G54D40*G36*
X197000Y176800D02*Y166800D01*
X207000D01*
Y176800D01*
X197000D01*
G37*
G54D41*X202000Y149900D03*
G54D42*X58723Y82764D03*
G54D40*G36*
X55973Y118514D02*Y113014D01*
X61473D01*
Y118514D01*
X55973D01*
G37*
G36*
Y106514D02*Y101014D01*
X61473D01*
Y106514D01*
X55973D01*
G37*
G54D42*X98723Y103764D03*
X108723Y115764D03*
G54D40*G36*
X56250Y128750D02*Y123250D01*
X61750D01*
Y128750D01*
X56250D01*
G37*
G54D42*X109000Y126000D03*
G54D41*X202000Y128000D03*
G54D40*G36*
X131250Y96750D02*Y91250D01*
X136750D01*
Y96750D01*
X131250D01*
G37*
G54D42*X134000Y144000D03*
G54D40*G36*
X148250Y96750D02*Y91250D01*
X153750D01*
Y96750D01*
X148250D01*
G37*
G54D42*X151000Y144000D03*
G54D40*G36*
X75000Y20500D02*Y11500D01*
X84000D01*
Y20500D01*
X75000D01*
G37*
G54D43*X119000Y16000D03*
G54D44*X69500D03*
X59500D03*
G54D40*G36*
X59239Y72247D02*Y66747D01*
X64739D01*
Y72247D01*
X59239D01*
G37*
G54D42*X81989Y69497D03*
G54D40*G36*
X95973Y85514D02*Y80014D01*
X101473D01*
Y85514D01*
X95973D01*
G37*
G54D45*X114000Y64000D03*
G54D40*G36*
X76723Y52764D02*Y46764D01*
X82723D01*
Y52764D01*
X76723D01*
G37*
G54D45*X69723Y49764D03*
G54D40*G36*
X135000Y20000D02*Y12000D01*
X143000D01*
Y20000D01*
X135000D01*
G37*
G36*
X141000Y37000D02*Y31000D01*
X147000D01*
Y37000D01*
X141000D01*
G37*
G54D45*X144000Y44000D03*
Y54000D03*
Y64000D03*
X114000Y54000D03*
Y44000D03*
Y34000D03*
G54D40*G36*
X175000Y38000D02*Y32000D01*
X181000D01*
Y38000D01*
X175000D01*
G37*
G54D45*X178000Y25000D03*
G54D40*G36*
X163400Y74600D02*Y67400D01*
X170600D01*
Y74600D01*
X163400D01*
G37*
G54D46*X167000Y81000D03*
Y91000D03*
G54D40*G36*
X197000Y103000D02*Y93000D01*
X207000D01*
Y103000D01*
X197000D01*
G37*
G54D41*X202000Y76100D03*
Y54200D03*
G54D38*X255723Y18764D03*
X275723D03*
X295723D03*
G54D41*X322723Y14764D03*
G54D40*G36*
X370223Y54264D02*Y45264D01*
X379223D01*
Y54264D01*
X370223D01*
G37*
G36*
X319723Y53764D02*Y45764D01*
X327723D01*
Y53764D01*
X319723D01*
G37*
G54D43*X343723Y49764D03*
G54D40*G36*
X361523Y19764D02*Y9764D01*
X371523D01*
Y19764D01*
X361523D01*
G37*
G54D41*X344623Y14764D03*
G54D40*G36*
X435523Y19764D02*Y9764D01*
X445523D01*
Y19764D01*
X435523D01*
G37*
G54D41*X418623Y14764D03*
X396723D03*
G54D44*X384723Y49764D03*
G54D40*G36*
X343973Y75514D02*Y70014D01*
X349473D01*
Y75514D01*
X343973D01*
G37*
G54D42*X326723Y72764D03*
G54D43*X489000Y35000D03*
Y55000D03*
G54D44*X394723Y49764D03*
G54D40*G36*
X422723Y53764D02*Y45764D01*
X430723D01*
Y53764D01*
X422723D01*
G37*
G36*
X374973Y95514D02*Y90014D01*
X380473D01*
Y95514D01*
X374973D01*
G37*
G54D43*X428723Y153764D03*
G54D40*G36*
X389223Y158264D02*Y149264D01*
X398223D01*
Y158264D01*
X389223D01*
G37*
G54D44*X383723Y153764D03*
X373723D03*
G54D42*X427723Y105764D03*
G54D38*X480723Y120764D03*
G54D40*G36*
X444723Y157764D02*Y149764D01*
X452723D01*
Y157764D01*
X444723D01*
G37*
G54D41*X344623Y187764D03*
X366523D03*
G54D40*G36*
X391723Y192764D02*Y182764D01*
X401723D01*
Y192764D01*
X391723D01*
G37*
G54D41*X418623Y187764D03*
X440523D03*
G54D38*X480723Y80764D03*
Y100764D03*
G54D43*X446723Y49764D03*
G54D42*X427723Y92764D03*
G54D43*X489000Y149000D03*
Y169000D03*
X324723Y153764D03*
G54D40*G36*
X319473Y130914D02*Y125414D01*
X324973D01*
Y130914D01*
X319473D01*
G37*
G36*
X304973Y82514D02*Y77014D01*
X310473D01*
Y82514D01*
X304973D01*
G37*
G54D42*X307723Y129764D03*
G54D40*G36*
X317723Y192764D02*Y182764D01*
X327723D01*
Y192764D01*
X317723D01*
G37*
G36*
X374973Y108514D02*Y103014D01*
X380473D01*
Y108514D01*
X374973D01*
G37*
G36*
X267973Y117514D02*Y112014D01*
X273473D01*
Y117514D01*
X267973D01*
G37*
G54D42*X250723Y114764D03*
G54D40*G36*
X247738Y67583D02*Y62083D01*
X253238D01*
Y67583D01*
X247738D01*
G37*
G54D42*X270488Y64833D03*
G54D40*G36*
X340723Y157764D02*Y149764D01*
X348723D01*
Y157764D01*
X340723D01*
G37*
G54D42*X342223Y128164D03*
G54D47*X260157Y137630D03*
X279843D03*
X270000Y177000D03*
G54D48*X262723Y82764D03*
X277723Y86764D03*
X289723Y91764D03*
X308723Y103764D03*
G54D45*X106723Y76764D03*
G54D48*X146000Y88000D03*
G54D45*X120000Y106000D03*
X82000Y94000D03*
G54D48*X88000Y39000D03*
G54D49*X17500Y184500D03*
Y17000D03*
G54D48*X261723Y64764D03*
G54D45*X307723Y33764D03*
X224000Y44000D03*
X216000Y25000D03*
X371723Y81764D03*
G54D49*X462500Y14500D03*
G54D45*X431000Y65000D03*
G54D48*X357723Y123764D03*
G54D49*X462500Y187000D03*
G54D45*X452500Y168000D03*
X436000Y123000D03*
X377000Y117000D03*
G54D50*G54D51*G54D50*G54D51*G54D50*G54D52*G54D50*G54D51*G54D52*G54D51*G54D50*G54D52*G54D51*G54D53*G54D54*G54D45*G54D55*G54D45*G54D55*G54D45*G54D36*G54D45*G54D55*G54D56*G54D55*G54D36*G54D56*G54D55*G54D57*G54D45*G54D53*G54D45*G54D36*G54D45*G54D55*G54D36*G54D45*G54D36*G54D55*G54D36*G54D45*G54D55*G54D53*G54D36*G54D45*G54D53*G54D36*G54D55*G54D36*G54D55*G54D45*G54D55*G54D36*G54D55*G54D58*M02*
