G04 start of page 10 for group -3984 idx -3984 *
G04 Title: (unknown), fab *
G04 Creator: pcb 1.99z *
G04 CreationDate: Fri 07 Mar 2014 08:36:24 PM GMT UTC *
G04 For: jpuls *
G04 Format: Gerber/RS-274X *
G04 PCB-Dimensions (mil): 5000.00 2020.00 *
G04 PCB-Coordinate-Origin: lower left *
%MOIN*%
%FSLAX25Y25*%
%LNFAB*%
%ADD102C,0.0100*%
%ADD101C,0.0075*%
%ADD100C,0.0060*%
%ADD99C,0.0001*%
%ADD98R,0.0080X0.0080*%
G54D98*X17500Y184500D02*Y179700D01*
G54D99*G36*
X16954Y184647D02*X21807Y187446D01*
X22206Y186753D01*
X17353Y183954D01*
X16954Y184647D01*
G37*
G36*
X17647Y183954D02*X12794Y186753D01*
X13193Y187446D01*
X18046Y184647D01*
X17647Y183954D01*
G37*
G54D98*X15900Y184500D02*G75*G03X19100Y184500I1600J0D01*G01*
G75*G03X15900Y184500I-1600J0D01*G01*
X14300D02*G75*G03X20700Y184500I3200J0D01*G01*
G75*G03X14300Y184500I-3200J0D01*G01*
X17500Y17000D02*Y12200D01*
G54D99*G36*
X16954Y17147D02*X21807Y19946D01*
X22206Y19253D01*
X17353Y16454D01*
X16954Y17147D01*
G37*
G36*
X17647Y16454D02*X12794Y19253D01*
X13193Y19946D01*
X18046Y17147D01*
X17647Y16454D01*
G37*
G54D98*X15900Y17000D02*G75*G03X19100Y17000I1600J0D01*G01*
G75*G03X15900Y17000I-1600J0D01*G01*
X14300D02*G75*G03X20700Y17000I3200J0D01*G01*
G75*G03X14300Y17000I-3200J0D01*G01*
X462500Y14500D02*Y9700D01*
G54D99*G36*
X461954Y14647D02*X466807Y17446D01*
X467206Y16753D01*
X462353Y13954D01*
X461954Y14647D01*
G37*
G36*
X462647Y13954D02*X457794Y16753D01*
X458193Y17446D01*
X463046Y14647D01*
X462647Y13954D01*
G37*
G54D98*X460900Y14500D02*G75*G03X464100Y14500I1600J0D01*G01*
G75*G03X460900Y14500I-1600J0D01*G01*
X459300D02*G75*G03X465700Y14500I3200J0D01*G01*
G75*G03X459300Y14500I-3200J0D01*G01*
X462500Y187000D02*Y182200D01*
G54D99*G36*
X461954Y187147D02*X466807Y189946D01*
X467206Y189253D01*
X462353Y186454D01*
X461954Y187147D01*
G37*
G36*
X462647Y186454D02*X457794Y189253D01*
X458193Y189946D01*
X463046Y187147D01*
X462647Y186454D01*
G37*
G54D98*X460900Y187000D02*G75*G03X464100Y187000I1600J0D01*G01*
G75*G03X460900Y187000I-1600J0D01*G01*
X459300D02*G75*G03X465700Y187000I3200J0D01*G01*
G75*G03X459300Y187000I-3200J0D01*G01*
X15000Y213250D02*Y208450D01*
G54D99*G36*
X14454Y213397D02*X19307Y216196D01*
X19706Y215503D01*
X14853Y212704D01*
X14454Y213397D01*
G37*
G36*
X15147Y212704D02*X10294Y215503D01*
X10693Y216196D01*
X15546Y213397D01*
X15147Y212704D01*
G37*
G54D98*X13400Y213250D02*G75*G03X16600Y213250I1600J0D01*G01*
G75*G03X13400Y213250I-1600J0D01*G01*
X11800D02*G75*G03X18200Y213250I3200J0D01*G01*
G75*G03X11800Y213250I-3200J0D01*G01*
G54D100*X135000Y215500D02*X136500Y212500D01*
X138000Y215500D01*
X136500Y212500D02*Y209500D01*
X139800Y212800D02*X142050D01*
X139800Y209500D02*X142800D01*
X139800Y215500D02*Y209500D01*
Y215500D02*X142800D01*
X147600D02*X148350Y214750D01*
X145350Y215500D02*X147600D01*
X144600Y214750D02*X145350Y215500D01*
X144600Y214750D02*Y213250D01*
X145350Y212500D01*
X147600D01*
X148350Y211750D01*
Y210250D01*
X147600Y209500D02*X148350Y210250D01*
X145350Y209500D02*X147600D01*
X144600Y210250D02*X145350Y209500D01*
X98000Y211750D02*X101000Y215500D01*
X98000Y211750D02*X101750D01*
X101000Y215500D02*Y209500D01*
X45000Y210250D02*X45750Y209500D01*
X45000Y214750D02*Y210250D01*
Y214750D02*X45750Y215500D01*
X47250D01*
X48000Y214750D01*
Y210250D01*
X47250Y209500D02*X48000Y210250D01*
X45750Y209500D02*X47250D01*
X45000Y211000D02*X48000Y214000D01*
X49800Y209500D02*X50550D01*
X52350Y214300D02*X53550Y215500D01*
Y209500D01*
X52350D02*X54600D01*
X56400Y214750D02*X57150Y215500D01*
X59400D01*
X60150Y214750D01*
Y213250D01*
X56400Y209500D02*X60150Y213250D01*
X56400Y209500D02*X60150D01*
X61950Y215500D02*X64950D01*
X61950D02*Y212500D01*
X62700Y213250D01*
X64200D01*
X64950Y212500D01*
Y210250D01*
X64200Y209500D02*X64950Y210250D01*
X62700Y209500D02*X64200D01*
X61950Y210250D02*X62700Y209500D01*
X364923Y16364D02*X368123D01*
X364923D02*Y13164D01*
X368123D01*
Y16364D02*Y13164D01*
X363323Y17964D02*X369723D01*
X363323D02*Y11564D01*
X369723D01*
Y17964D02*Y11564D01*
X343023Y16364D02*X346223D01*
X343023D02*Y13164D01*
X346223D01*
Y16364D02*Y13164D01*
X341423Y17964D02*X347823D01*
X341423D02*Y11564D01*
X347823D01*
Y17964D02*Y11564D01*
X321123Y16364D02*X324323D01*
X321123D02*Y13164D01*
X324323D01*
Y16364D02*Y13164D01*
X319523Y17964D02*X325923D01*
X319523D02*Y11564D01*
X325923D01*
Y17964D02*Y11564D01*
X438923Y16364D02*X442123D01*
X438923D02*Y13164D01*
X442123D01*
Y16364D02*Y13164D01*
X437323Y17964D02*X443723D01*
X437323D02*Y11564D01*
X443723D01*
Y17964D02*Y11564D01*
X417023Y16364D02*X420223D01*
X417023D02*Y13164D01*
X420223D01*
Y16364D02*Y13164D01*
X415423Y17964D02*X421823D01*
X415423D02*Y11564D01*
X421823D01*
Y17964D02*Y11564D01*
X395123Y16364D02*X398323D01*
X395123D02*Y13164D01*
X398323D01*
Y16364D02*Y13164D01*
X393523Y17964D02*X399923D01*
X393523D02*Y11564D01*
X399923D01*
Y17964D02*Y11564D01*
X373123Y51364D02*X376323D01*
X373123D02*Y48164D01*
X376323D01*
Y51364D02*Y48164D01*
X371523Y52964D02*X377923D01*
X371523D02*Y46564D01*
X377923D01*
Y52964D02*Y46564D01*
X383123Y51364D02*X386323D01*
X383123D02*Y48164D01*
X386323D01*
Y51364D02*Y48164D01*
X381523Y52964D02*X387923D01*
X381523D02*Y46564D01*
X387923D01*
Y52964D02*Y46564D01*
X393123Y51364D02*X396323D01*
X393123D02*Y48164D01*
X396323D01*
Y51364D02*Y48164D01*
X391523Y52964D02*X397923D01*
X391523D02*Y46564D01*
X397923D01*
Y52964D02*Y46564D01*
X77900Y17600D02*X81100D01*
X77900D02*Y14400D01*
X81100D01*
Y17600D02*Y14400D01*
X76300Y19200D02*X82700D01*
X76300D02*Y12800D01*
X82700D01*
Y19200D02*Y12800D01*
X67900Y17600D02*X71100D01*
X67900D02*Y14400D01*
X71100D01*
Y17600D02*Y14400D01*
X66300Y19200D02*X72700D01*
X66300D02*Y12800D01*
X72700D01*
Y19200D02*Y12800D01*
X57900Y17600D02*X61100D01*
X57900D02*Y14400D01*
X61100D01*
Y17600D02*Y14400D01*
X56300Y19200D02*X62700D01*
X56300D02*Y12800D01*
X62700D01*
Y19200D02*Y12800D01*
X392123Y155364D02*X395323D01*
X392123D02*Y152164D01*
X395323D01*
Y155364D02*Y152164D01*
X390523Y156964D02*X396923D01*
X390523D02*Y150564D01*
X396923D01*
Y156964D02*Y150564D01*
X382123Y155364D02*X385323D01*
X382123D02*Y152164D01*
X385323D01*
Y155364D02*Y152164D01*
X380523Y156964D02*X386923D01*
X380523D02*Y150564D01*
X386923D01*
Y156964D02*Y150564D01*
X372123Y155364D02*X375323D01*
X372123D02*Y152164D01*
X375323D01*
Y155364D02*Y152164D01*
X370523Y156964D02*X376923D01*
X370523D02*Y150564D01*
X376923D01*
Y156964D02*Y150564D01*
X321123Y189364D02*X324323D01*
X321123D02*Y186164D01*
X324323D01*
Y189364D02*Y186164D01*
X319523Y190964D02*X325923D01*
X319523D02*Y184564D01*
X325923D01*
Y190964D02*Y184564D01*
X343023Y189364D02*X346223D01*
X343023D02*Y186164D01*
X346223D01*
Y189364D02*Y186164D01*
X341423Y190964D02*X347823D01*
X341423D02*Y184564D01*
X347823D01*
Y190964D02*Y184564D01*
X364923Y189364D02*X368123D01*
X364923D02*Y186164D01*
X368123D01*
Y189364D02*Y186164D01*
X363323Y190964D02*X369723D01*
X363323D02*Y184564D01*
X369723D01*
Y190964D02*Y184564D01*
X395123Y189364D02*X398323D01*
X395123D02*Y186164D01*
X398323D01*
Y189364D02*Y186164D01*
X393523Y190964D02*X399923D01*
X393523D02*Y184564D01*
X399923D01*
Y190964D02*Y184564D01*
X417023Y189364D02*X420223D01*
X417023D02*Y186164D01*
X420223D01*
Y189364D02*Y186164D01*
X415423Y190964D02*X421823D01*
X415423D02*Y184564D01*
X421823D01*
Y190964D02*Y184564D01*
X438923Y189364D02*X442123D01*
X438923D02*Y186164D01*
X442123D01*
Y189364D02*Y186164D01*
X437323Y190964D02*X443723D01*
X437323D02*Y184564D01*
X443723D01*
Y190964D02*Y184564D01*
X200400Y99600D02*X203600D01*
X200400D02*Y96400D01*
X203600D01*
Y99600D02*Y96400D01*
X198800Y101200D02*X205200D01*
X198800D02*Y94800D01*
X205200D01*
Y101200D02*Y94800D01*
X200400Y77700D02*X203600D01*
X200400D02*Y74500D01*
X203600D01*
Y77700D02*Y74500D01*
X198800Y79300D02*X205200D01*
X198800D02*Y72900D01*
X205200D01*
Y79300D02*Y72900D01*
X200400Y55800D02*X203600D01*
X200400D02*Y52600D01*
X203600D01*
Y55800D02*Y52600D01*
X198800Y57400D02*X205200D01*
X198800D02*Y51000D01*
X205200D01*
Y57400D02*Y51000D01*
X200400Y173400D02*X203600D01*
X200400D02*Y170200D01*
X203600D01*
Y173400D02*Y170200D01*
X198800Y175000D02*X205200D01*
X198800D02*Y168600D01*
X205200D01*
Y175000D02*Y168600D01*
X200400Y151500D02*X203600D01*
X200400D02*Y148300D01*
X203600D01*
Y151500D02*Y148300D01*
X198800Y153100D02*X205200D01*
X198800D02*Y146700D01*
X205200D01*
Y153100D02*Y146700D01*
X200400Y129600D02*X203600D01*
X200400D02*Y126400D01*
X203600D01*
Y129600D02*Y126400D01*
X198800Y131200D02*X205200D01*
X198800D02*Y124800D01*
X205200D01*
Y131200D02*Y124800D01*
X13400Y229850D02*X16600D01*
X13400D02*Y226650D01*
X16600D01*
Y229850D02*Y226650D01*
X11800Y231450D02*X18200D01*
X11800D02*Y225050D01*
X18200D01*
Y231450D02*Y225050D01*
X135000Y230500D02*X136500Y227500D01*
X138000Y230500D01*
X136500Y227500D02*Y224500D01*
X139800Y227800D02*X142050D01*
X139800Y224500D02*X142800D01*
X139800Y230500D02*Y224500D01*
Y230500D02*X142800D01*
X147600D02*X148350Y229750D01*
X145350Y230500D02*X147600D01*
X144600Y229750D02*X145350Y230500D01*
X144600Y229750D02*Y228250D01*
X145350Y227500D01*
X147600D01*
X148350Y226750D01*
Y225250D01*
X147600Y224500D02*X148350Y225250D01*
X145350Y224500D02*X147600D01*
X144600Y225250D02*X145350Y224500D01*
X98000Y229750D02*X98750Y230500D01*
X101000D01*
X101750Y229750D01*
Y228250D01*
X98000Y224500D02*X101750Y228250D01*
X98000Y224500D02*X101750D01*
X104300D02*X107300Y230500D01*
X103550D02*X107300D01*
X45000Y225250D02*X45750Y224500D01*
X45000Y229750D02*Y225250D01*
Y229750D02*X45750Y230500D01*
X47250D01*
X48000Y229750D01*
Y225250D01*
X47250Y224500D02*X48000Y225250D01*
X45750Y224500D02*X47250D01*
X45000Y226000D02*X48000Y229000D01*
X49800Y224500D02*X50550D01*
X52350Y225250D02*X53100Y224500D01*
X52350Y229750D02*Y225250D01*
Y229750D02*X53100Y230500D01*
X54600D01*
X55350Y229750D01*
Y225250D01*
X54600Y224500D02*X55350Y225250D01*
X53100Y224500D02*X54600D01*
X52350Y226000D02*X55350Y229000D01*
X59400Y230500D02*X60150Y229750D01*
X57900Y230500D02*X59400D01*
X57150Y229750D02*X57900Y230500D01*
X57150Y229750D02*Y225250D01*
X57900Y224500D01*
X59400Y227800D02*X60150Y227050D01*
X57150Y227800D02*X59400D01*
X57900Y224500D02*X59400D01*
X60150Y225250D01*
Y227050D02*Y225250D01*
X61950D02*X62700Y224500D01*
X61950Y229750D02*Y225250D01*
Y229750D02*X62700Y230500D01*
X64200D01*
X64950Y229750D01*
Y225250D01*
X64200Y224500D02*X64950Y225250D01*
X62700Y224500D02*X64200D01*
X61950Y226000D02*X64950Y229000D01*
X59200Y178000D02*G75*G03X60800Y178000I800J0D01*G01*
G75*G03X59200Y178000I-800J0D01*G01*
X57600D02*G75*G03X62400Y178000I2400J0D01*G01*
G75*G03X57600Y178000I-2400J0D01*G01*
X148176D02*G75*G03X149776Y178000I800J0D01*G01*
G75*G03X148176Y178000I-800J0D01*G01*
X146576D02*G75*G03X151376Y178000I2400J0D01*G01*
G75*G03X146576Y178000I-2400J0D01*G01*
X14200Y243250D02*G75*G03X15800Y243250I800J0D01*G01*
G75*G03X14200Y243250I-800J0D01*G01*
X12600D02*G75*G03X17400Y243250I2400J0D01*G01*
G75*G03X12600Y243250I-2400J0D01*G01*
X135000Y245500D02*X136500Y242500D01*
X138000Y245500D01*
X136500Y242500D02*Y239500D01*
X139800Y242800D02*X142050D01*
X139800Y239500D02*X142800D01*
X139800Y245500D02*Y239500D01*
Y245500D02*X142800D01*
X147600D02*X148350Y244750D01*
X145350Y245500D02*X147600D01*
X144600Y244750D02*X145350Y245500D01*
X144600Y244750D02*Y243250D01*
X145350Y242500D01*
X147600D01*
X148350Y241750D01*
Y240250D01*
X147600Y239500D02*X148350Y240250D01*
X145350Y239500D02*X147600D01*
X144600Y240250D02*X145350Y239500D01*
X98000Y244750D02*X98750Y245500D01*
X101000D01*
X101750Y244750D01*
Y243250D01*
X98000Y239500D02*X101750Y243250D01*
X98000Y239500D02*X101750D01*
X45000Y240250D02*X45750Y239500D01*
X45000Y244750D02*Y240250D01*
Y244750D02*X45750Y245500D01*
X47250D01*
X48000Y244750D01*
Y240250D01*
X47250Y239500D02*X48000Y240250D01*
X45750Y239500D02*X47250D01*
X45000Y241000D02*X48000Y244000D01*
X49800Y239500D02*X50550D01*
X52350Y240250D02*X53100Y239500D01*
X52350Y244750D02*Y240250D01*
Y244750D02*X53100Y245500D01*
X54600D01*
X55350Y244750D01*
Y240250D01*
X54600Y239500D02*X55350Y240250D01*
X53100Y239500D02*X54600D01*
X52350Y241000D02*X55350Y244000D01*
X57150Y245500D02*X60150D01*
X57150D02*Y242500D01*
X57900Y243250D01*
X59400D01*
X60150Y242500D01*
Y240250D01*
X59400Y239500D02*X60150Y240250D01*
X57900Y239500D02*X59400D01*
X57150Y240250D02*X57900Y239500D01*
X62700D02*X64950Y242500D01*
Y244750D02*Y242500D01*
X64200Y245500D02*X64950Y244750D01*
X62700Y245500D02*X64200D01*
X61950Y244750D02*X62700Y245500D01*
X61950Y244750D02*Y243250D01*
X62700Y242500D01*
X64950D01*
X15500Y160800D02*X20300Y156000D01*
X15500D02*X20300Y160800D01*
X16300Y160000D02*X19500D01*
X16300D02*Y156800D01*
X19500D01*
Y160000D02*Y156800D01*
X15500Y140800D02*X20300Y136000D01*
X15500D02*X20300Y140800D01*
X16300Y140000D02*X19500D01*
X16300D02*Y136800D01*
X19500D01*
Y140000D02*Y136800D01*
X15500Y120800D02*X20300Y116000D01*
X15500D02*X20300Y120800D01*
X16300Y120000D02*X19500D01*
X16300D02*Y116800D01*
X19500D01*
Y120000D02*Y116800D01*
X15514Y85461D02*X20314Y80661D01*
X15514D02*X20314Y85461D01*
X16314Y84661D02*X19514D01*
X16314D02*Y81461D01*
X19514D01*
Y84661D02*Y81461D01*
X15514Y65461D02*X20314Y60661D01*
X15514D02*X20314Y65461D01*
X16314Y64661D02*X19514D01*
X16314D02*Y61461D01*
X19514D01*
Y64661D02*Y61461D01*
X15514Y45461D02*X20314Y40661D01*
X15514D02*X20314Y45461D01*
X16314Y44661D02*X19514D01*
X16314D02*Y41461D01*
X19514D01*
Y44661D02*Y41461D01*
X253323Y21164D02*X258123Y16364D01*
X253323D02*X258123Y21164D01*
X254123Y20364D02*X257323D01*
X254123D02*Y17164D01*
X257323D01*
Y20364D02*Y17164D01*
X273323Y21164D02*X278123Y16364D01*
X273323D02*X278123Y21164D01*
X274123Y20364D02*X277323D01*
X274123D02*Y17164D01*
X277323D01*
Y20364D02*Y17164D01*
X293323Y21164D02*X298123Y16364D01*
X293323D02*X298123Y21164D01*
X294123Y20364D02*X297323D01*
X294123D02*Y17164D01*
X297323D01*
Y20364D02*Y17164D01*
X478323Y83164D02*X483123Y78364D01*
X478323D02*X483123Y83164D01*
X479123Y82364D02*X482323D01*
X479123D02*Y79164D01*
X482323D01*
Y82364D02*Y79164D01*
X478323Y103164D02*X483123Y98364D01*
X478323D02*X483123Y103164D01*
X479123Y102364D02*X482323D01*
X479123D02*Y99164D01*
X482323D01*
Y102364D02*Y99164D01*
X478323Y123164D02*X483123Y118364D01*
X478323D02*X483123Y123164D01*
X479123Y122364D02*X482323D01*
X479123D02*Y119164D01*
X482323D01*
Y122364D02*Y119164D01*
X12600Y260650D02*X17400Y255850D01*
X12600D02*X17400Y260650D01*
X13400Y259850D02*X16600D01*
X13400D02*Y256650D01*
X16600D01*
Y259850D02*Y256650D01*
X135000Y260500D02*X136500Y257500D01*
X138000Y260500D01*
X136500Y257500D02*Y254500D01*
X139800Y257800D02*X142050D01*
X139800Y254500D02*X142800D01*
X139800Y260500D02*Y254500D01*
Y260500D02*X142800D01*
X147600D02*X148350Y259750D01*
X145350Y260500D02*X147600D01*
X144600Y259750D02*X145350Y260500D01*
X144600Y259750D02*Y258250D01*
X145350Y257500D01*
X147600D01*
X148350Y256750D01*
Y255250D01*
X147600Y254500D02*X148350Y255250D01*
X145350Y254500D02*X147600D01*
X144600Y255250D02*X145350Y254500D01*
X98000Y259300D02*X99200Y260500D01*
Y254500D01*
X98000D02*X100250D01*
X102050Y259750D02*X102800Y260500D01*
X105050D01*
X105800Y259750D01*
Y258250D01*
X102050Y254500D02*X105800Y258250D01*
X102050Y254500D02*X105800D01*
X45000Y255250D02*X45750Y254500D01*
X45000Y259750D02*Y255250D01*
Y259750D02*X45750Y260500D01*
X47250D01*
X48000Y259750D01*
Y255250D01*
X47250Y254500D02*X48000Y255250D01*
X45750Y254500D02*X47250D01*
X45000Y256000D02*X48000Y259000D01*
X49800Y254500D02*X50550D01*
X52350Y255250D02*X53100Y254500D01*
X52350Y259750D02*Y255250D01*
Y259750D02*X53100Y260500D01*
X54600D01*
X55350Y259750D01*
Y255250D01*
X54600Y254500D02*X55350Y255250D01*
X53100Y254500D02*X54600D01*
X52350Y256000D02*X55350Y259000D01*
X57150Y260500D02*X60150D01*
X57150D02*Y257500D01*
X57900Y258250D01*
X59400D01*
X60150Y257500D01*
Y255250D01*
X59400Y254500D02*X60150Y255250D01*
X57900Y254500D02*X59400D01*
X57150Y255250D02*X57900Y254500D01*
X61950Y260500D02*X64950D01*
X61950D02*Y257500D01*
X62700Y258250D01*
X64200D01*
X64950Y257500D01*
Y255250D01*
X64200Y254500D02*X64950Y255250D01*
X62700Y254500D02*X64200D01*
X61950Y255250D02*X62700Y254500D01*
X260157Y140830D02*Y134430D01*
X256957Y137630D02*X263357D01*
X258557Y139230D02*X261757D01*
X258557D02*Y136030D01*
X261757D01*
Y139230D02*Y136030D01*
X270000Y180200D02*Y173800D01*
X266800Y177000D02*X273200D01*
X268400Y178600D02*X271600D01*
X268400D02*Y175400D01*
X271600D01*
Y178600D02*Y175400D01*
X279843Y140830D02*Y134430D01*
X276643Y137630D02*X283043D01*
X278243Y139230D02*X281443D01*
X278243D02*Y136030D01*
X281443D01*
Y139230D02*Y136030D01*
X15000Y276450D02*Y270050D01*
X11800Y273250D02*X18200D01*
X13400Y274850D02*X16600D01*
X13400D02*Y271650D01*
X16600D01*
Y274850D02*Y271650D01*
X135000Y275500D02*X136500Y272500D01*
X138000Y275500D01*
X136500Y272500D02*Y269500D01*
X139800Y272800D02*X142050D01*
X139800Y269500D02*X142800D01*
X139800Y275500D02*Y269500D01*
Y275500D02*X142800D01*
X147600D02*X148350Y274750D01*
X145350Y275500D02*X147600D01*
X144600Y274750D02*X145350Y275500D01*
X144600Y274750D02*Y273250D01*
X145350Y272500D01*
X147600D01*
X148350Y271750D01*
Y270250D01*
X147600Y269500D02*X148350Y270250D01*
X145350Y269500D02*X147600D01*
X144600Y270250D02*X145350Y269500D01*
X98000Y274750D02*X98750Y275500D01*
X100250D01*
X101000Y274750D01*
X100250Y269500D02*X101000Y270250D01*
X98750Y269500D02*X100250D01*
X98000Y270250D02*X98750Y269500D01*
Y272800D02*X100250D01*
X101000Y274750D02*Y273550D01*
Y272050D02*Y270250D01*
Y272050D02*X100250Y272800D01*
X101000Y273550D02*X100250Y272800D01*
X45000Y270250D02*X45750Y269500D01*
X45000Y274750D02*Y270250D01*
Y274750D02*X45750Y275500D01*
X47250D01*
X48000Y274750D01*
Y270250D01*
X47250Y269500D02*X48000Y270250D01*
X45750Y269500D02*X47250D01*
X45000Y271000D02*X48000Y274000D01*
X49800Y269500D02*X50550D01*
X52350Y270250D02*X53100Y269500D01*
X52350Y274750D02*Y270250D01*
Y274750D02*X53100Y275500D01*
X54600D01*
X55350Y274750D01*
Y270250D01*
X54600Y269500D02*X55350Y270250D01*
X53100Y269500D02*X54600D01*
X52350Y271000D02*X55350Y274000D01*
X57150Y271750D02*X60150Y275500D01*
X57150Y271750D02*X60900D01*
X60150Y275500D02*Y269500D01*
X63450D02*X66450Y275500D01*
X62700D02*X66450D01*
X167000Y71000D02*Y67800D01*
Y71000D02*X169773Y72600D01*
X167000Y71000D02*X164227Y72600D01*
X165400Y71000D02*G75*G03X168600Y71000I1600J0D01*G01*
G75*G03X165400Y71000I-1600J0D01*G01*
X167000Y81000D02*Y77800D01*
Y81000D02*X169773Y82600D01*
X167000Y81000D02*X164227Y82600D01*
X165400Y81000D02*G75*G03X168600Y81000I1600J0D01*G01*
G75*G03X165400Y81000I-1600J0D01*G01*
X167000Y91000D02*Y87800D01*
Y91000D02*X169773Y92600D01*
X167000Y91000D02*X164227Y92600D01*
X165400Y91000D02*G75*G03X168600Y91000I1600J0D01*G01*
G75*G03X165400Y91000I-1600J0D01*G01*
X15000Y288250D02*Y285050D01*
Y288250D02*X17773Y289850D01*
X15000Y288250D02*X12227Y289850D01*
X13400Y288250D02*G75*G03X16600Y288250I1600J0D01*G01*
G75*G03X13400Y288250I-1600J0D01*G01*
X135000Y290500D02*X136500Y287500D01*
X138000Y290500D01*
X136500Y287500D02*Y284500D01*
X139800Y287800D02*X142050D01*
X139800Y284500D02*X142800D01*
X139800Y290500D02*Y284500D01*
Y290500D02*X142800D01*
X147600D02*X148350Y289750D01*
X145350Y290500D02*X147600D01*
X144600Y289750D02*X145350Y290500D01*
X144600Y289750D02*Y288250D01*
X145350Y287500D01*
X147600D01*
X148350Y286750D01*
Y285250D01*
X147600Y284500D02*X148350Y285250D01*
X145350Y284500D02*X147600D01*
X144600Y285250D02*X145350Y284500D01*
X98000Y289750D02*X98750Y290500D01*
X100250D01*
X101000Y289750D01*
X100250Y284500D02*X101000Y285250D01*
X98750Y284500D02*X100250D01*
X98000Y285250D02*X98750Y284500D01*
Y287800D02*X100250D01*
X101000Y289750D02*Y288550D01*
Y287050D02*Y285250D01*
Y287050D02*X100250Y287800D01*
X101000Y288550D02*X100250Y287800D01*
X45000Y285250D02*X45750Y284500D01*
X45000Y289750D02*Y285250D01*
Y289750D02*X45750Y290500D01*
X47250D01*
X48000Y289750D01*
Y285250D01*
X47250Y284500D02*X48000Y285250D01*
X45750Y284500D02*X47250D01*
X45000Y286000D02*X48000Y289000D01*
X49800Y284500D02*X50550D01*
X52350Y285250D02*X53100Y284500D01*
X52350Y289750D02*Y285250D01*
Y289750D02*X53100Y290500D01*
X54600D01*
X55350Y289750D01*
Y285250D01*
X54600Y284500D02*X55350Y285250D01*
X53100Y284500D02*X54600D01*
X52350Y286000D02*X55350Y289000D01*
X57150Y286750D02*X60150Y290500D01*
X57150Y286750D02*X60900D01*
X60150Y290500D02*Y284500D01*
X62700Y289750D02*X63450Y290500D01*
X65700D01*
X66450Y289750D01*
Y288250D01*
X62700Y284500D02*X66450Y288250D01*
X62700Y284500D02*X66450D01*
X322123Y51364D02*X325323D01*
X322123D02*Y48164D01*
X325323D01*
Y51364D02*Y48164D01*
X342123Y51364D02*X345323D01*
X342123D02*Y48164D01*
X345323D01*
Y51364D02*Y48164D01*
X447123Y155364D02*X450323D01*
X447123D02*Y152164D01*
X450323D01*
Y155364D02*Y152164D01*
X427123Y155364D02*X430323D01*
X427123D02*Y152164D01*
X430323D01*
Y155364D02*Y152164D01*
X343123Y155364D02*X346323D01*
X343123D02*Y152164D01*
X346323D01*
Y155364D02*Y152164D01*
X323123Y155364D02*X326323D01*
X323123D02*Y152164D01*
X326323D01*
Y155364D02*Y152164D01*
X425123Y51364D02*X428323D01*
X425123D02*Y48164D01*
X428323D01*
Y51364D02*Y48164D01*
X445123Y51364D02*X448323D01*
X445123D02*Y48164D01*
X448323D01*
Y51364D02*Y48164D01*
X137400Y17600D02*X140600D01*
X137400D02*Y14400D01*
X140600D01*
Y17600D02*Y14400D01*
X117400Y17600D02*X120600D01*
X117400D02*Y14400D01*
X120600D01*
Y17600D02*Y14400D01*
X487400Y36600D02*X490600D01*
X487400D02*Y33400D01*
X490600D01*
Y36600D02*Y33400D01*
X487400Y56600D02*X490600D01*
X487400D02*Y53400D01*
X490600D01*
Y56600D02*Y53400D01*
X487400Y150600D02*X490600D01*
X487400D02*Y147400D01*
X490600D01*
Y150600D02*Y147400D01*
X487400Y170600D02*X490600D01*
X487400D02*Y167400D01*
X490600D01*
Y170600D02*Y167400D01*
X13400Y304850D02*X16600D01*
X13400D02*Y301650D01*
X16600D01*
Y304850D02*Y301650D01*
X135000Y305500D02*X136500Y302500D01*
X138000Y305500D01*
X136500Y302500D02*Y299500D01*
X139800Y302800D02*X142050D01*
X139800Y299500D02*X142800D01*
X139800Y305500D02*Y299500D01*
Y305500D02*X142800D01*
X147600D02*X148350Y304750D01*
X145350Y305500D02*X147600D01*
X144600Y304750D02*X145350Y305500D01*
X144600Y304750D02*Y303250D01*
X145350Y302500D01*
X147600D01*
X148350Y301750D01*
Y300250D01*
X147600Y299500D02*X148350Y300250D01*
X145350Y299500D02*X147600D01*
X144600Y300250D02*X145350Y299500D01*
X98000Y304300D02*X99200Y305500D01*
Y299500D01*
X98000D02*X100250D01*
X102050Y301750D02*X105050Y305500D01*
X102050Y301750D02*X105800D01*
X105050Y305500D02*Y299500D01*
X45000Y300250D02*X45750Y299500D01*
X45000Y304750D02*Y300250D01*
Y304750D02*X45750Y305500D01*
X47250D01*
X48000Y304750D01*
Y300250D01*
X47250Y299500D02*X48000Y300250D01*
X45750Y299500D02*X47250D01*
X45000Y301000D02*X48000Y304000D01*
X49800Y299500D02*X50550D01*
X52350Y300250D02*X53100Y299500D01*
X52350Y304750D02*Y300250D01*
Y304750D02*X53100Y305500D01*
X54600D01*
X55350Y304750D01*
Y300250D01*
X54600Y299500D02*X55350Y300250D01*
X53100Y299500D02*X54600D01*
X52350Y301000D02*X55350Y304000D01*
X57150Y301750D02*X60150Y305500D01*
X57150Y301750D02*X60900D01*
X60150Y305500D02*Y299500D01*
X62700Y300250D02*X63450Y299500D01*
X62700Y304750D02*Y300250D01*
Y304750D02*X63450Y305500D01*
X64950D01*
X65700Y304750D01*
Y300250D01*
X64950Y299500D02*X65700Y300250D01*
X63450Y299500D02*X64950D01*
X62700Y301000D02*X65700Y304000D01*
X105923Y76764D02*G75*G03X107523Y76764I800J0D01*G01*
G75*G03X105923Y76764I-800J0D01*G01*
X306923Y33764D02*G75*G03X308523Y33764I800J0D01*G01*
G75*G03X306923Y33764I-800J0D01*G01*
X370923Y81764D02*G75*G03X372523Y81764I800J0D01*G01*
G75*G03X370923Y81764I-800J0D01*G01*
X451700Y168000D02*G75*G03X453300Y168000I800J0D01*G01*
G75*G03X451700Y168000I-800J0D01*G01*
X223200Y44000D02*G75*G03X224800Y44000I800J0D01*G01*
G75*G03X223200Y44000I-800J0D01*G01*
X215200Y25000D02*G75*G03X216800Y25000I800J0D01*G01*
G75*G03X215200Y25000I-800J0D01*G01*
X119200Y106000D02*G75*G03X120800Y106000I800J0D01*G01*
G75*G03X119200Y106000I-800J0D01*G01*
X81200Y94000D02*G75*G03X82800Y94000I800J0D01*G01*
G75*G03X81200Y94000I-800J0D01*G01*
X430200Y65000D02*G75*G03X431800Y65000I800J0D01*G01*
G75*G03X430200Y65000I-800J0D01*G01*
X435200Y123000D02*G75*G03X436800Y123000I800J0D01*G01*
G75*G03X435200Y123000I-800J0D01*G01*
X376200Y117000D02*G75*G03X377800Y117000I800J0D01*G01*
G75*G03X376200Y117000I-800J0D01*G01*
X14200Y318250D02*G75*G03X15800Y318250I800J0D01*G01*
G75*G03X14200Y318250I-800J0D01*G01*
X135000Y320500D02*X136500Y317500D01*
X138000Y320500D01*
X136500Y317500D02*Y314500D01*
X139800Y317800D02*X142050D01*
X139800Y314500D02*X142800D01*
X139800Y320500D02*Y314500D01*
Y320500D02*X142800D01*
X147600D02*X148350Y319750D01*
X145350Y320500D02*X147600D01*
X144600Y319750D02*X145350Y320500D01*
X144600Y319750D02*Y318250D01*
X145350Y317500D01*
X147600D01*
X148350Y316750D01*
Y315250D01*
X147600Y314500D02*X148350Y315250D01*
X145350Y314500D02*X147600D01*
X144600Y315250D02*X145350Y314500D01*
X98000Y319300D02*X99200Y320500D01*
Y314500D01*
X98000D02*X100250D01*
X102050Y319300D02*X103250Y320500D01*
Y314500D01*
X102050D02*X104300D01*
X45000Y315250D02*X45750Y314500D01*
X45000Y319750D02*Y315250D01*
Y319750D02*X45750Y320500D01*
X47250D01*
X48000Y319750D01*
Y315250D01*
X47250Y314500D02*X48000Y315250D01*
X45750Y314500D02*X47250D01*
X45000Y316000D02*X48000Y319000D01*
X49800Y314500D02*X50550D01*
X52350Y315250D02*X53100Y314500D01*
X52350Y319750D02*Y315250D01*
Y319750D02*X53100Y320500D01*
X54600D01*
X55350Y319750D01*
Y315250D01*
X54600Y314500D02*X55350Y315250D01*
X53100Y314500D02*X54600D01*
X52350Y316000D02*X55350Y319000D01*
X57150Y319750D02*X57900Y320500D01*
X59400D01*
X60150Y319750D01*
X59400Y314500D02*X60150Y315250D01*
X57900Y314500D02*X59400D01*
X57150Y315250D02*X57900Y314500D01*
Y317800D02*X59400D01*
X60150Y319750D02*Y318550D01*
Y317050D02*Y315250D01*
Y317050D02*X59400Y317800D01*
X60150Y318550D02*X59400Y317800D01*
X61950Y320500D02*X64950D01*
X61950D02*Y317500D01*
X62700Y318250D01*
X64200D01*
X64950Y317500D01*
Y315250D01*
X64200Y314500D02*X64950Y315250D01*
X62700Y314500D02*X64200D01*
X61950Y315250D02*X62700Y314500D01*
X60789Y70697D02*X63189Y68297D01*
X60789D02*X63189Y70697D01*
X80789D02*X83189Y68297D01*
X80789D02*X83189Y70697D01*
X97523Y83964D02*X99923Y81564D01*
X97523D02*X99923Y83964D01*
X57523D02*X59923Y81564D01*
X57523D02*X59923Y83964D01*
X57523Y104964D02*X59923Y102564D01*
X57523D02*X59923Y104964D01*
X97523D02*X99923Y102564D01*
X97523D02*X99923Y104964D01*
X57523Y116964D02*X59923Y114564D01*
X57523D02*X59923Y116964D01*
X107523D02*X109923Y114564D01*
X107523D02*X109923Y116964D01*
X345523Y73964D02*X347923Y71564D01*
X345523D02*X347923Y73964D01*
X325523D02*X327923Y71564D01*
X325523D02*X327923Y73964D01*
X321023Y129364D02*X323423Y126964D01*
X321023D02*X323423Y129364D01*
X341023D02*X343423Y126964D01*
X341023D02*X343423Y129364D01*
X306523Y80964D02*X308923Y78564D01*
X306523D02*X308923Y80964D01*
X306523Y130964D02*X308923Y128564D01*
X306523D02*X308923Y130964D01*
X376523Y93964D02*X378923Y91564D01*
X376523D02*X378923Y93964D01*
X426523D02*X428923Y91564D01*
X426523D02*X428923Y93964D01*
X376523Y106964D02*X378923Y104564D01*
X376523D02*X378923Y106964D01*
X426523D02*X428923Y104564D01*
X426523D02*X428923Y106964D01*
X269523Y115964D02*X271923Y113564D01*
X269523D02*X271923Y115964D01*
X249523D02*X251923Y113564D01*
X249523D02*X251923Y115964D01*
X249288Y66033D02*X251688Y63633D01*
X249288D02*X251688Y66033D01*
X269288D02*X271688Y63633D01*
X269288D02*X271688Y66033D01*
X57800Y127200D02*X60200Y124800D01*
X57800D02*X60200Y127200D01*
X107800D02*X110200Y124800D01*
X107800D02*X110200Y127200D01*
X132800Y95200D02*X135200Y92800D01*
X132800D02*X135200Y95200D01*
X132800Y145200D02*X135200Y142800D01*
X132800D02*X135200Y145200D01*
X149800Y95200D02*X152200Y92800D01*
X149800D02*X152200Y95200D01*
X149800Y145200D02*X152200Y142800D01*
X149800D02*X152200Y145200D01*
X176800Y36200D02*X179200Y33800D01*
X176800D02*X179200Y36200D01*
X176800Y26200D02*X179200Y23800D01*
X176800D02*X179200Y26200D01*
X78523Y50964D02*X80923Y48564D01*
X78523D02*X80923Y50964D01*
X68523D02*X70923Y48564D01*
X68523D02*X70923Y50964D01*
X13800Y334450D02*X16200Y332050D01*
X13800D02*X16200Y334450D01*
X135000Y335500D02*X136500Y332500D01*
X138000Y335500D01*
X136500Y332500D02*Y329500D01*
X139800Y332800D02*X142050D01*
X139800Y329500D02*X142800D01*
X139800Y335500D02*Y329500D01*
Y335500D02*X142800D01*
X147600D02*X148350Y334750D01*
X145350Y335500D02*X147600D01*
X144600Y334750D02*X145350Y335500D01*
X144600Y334750D02*Y333250D01*
X145350Y332500D01*
X147600D01*
X148350Y331750D01*
Y330250D01*
X147600Y329500D02*X148350Y330250D01*
X145350Y329500D02*X147600D01*
X144600Y330250D02*X145350Y329500D01*
X98000Y334750D02*X98750Y335500D01*
X100250D01*
X101000Y334750D01*
X100250Y329500D02*X101000Y330250D01*
X98750Y329500D02*X100250D01*
X98000Y330250D02*X98750Y329500D01*
Y332800D02*X100250D01*
X101000Y334750D02*Y333550D01*
Y332050D02*Y330250D01*
Y332050D02*X100250Y332800D01*
X101000Y333550D02*X100250Y332800D01*
X102800Y334750D02*X103550Y335500D01*
X105800D01*
X106550Y334750D01*
Y333250D01*
X102800Y329500D02*X106550Y333250D01*
X102800Y329500D02*X106550D01*
X45000Y330250D02*X45750Y329500D01*
X45000Y334750D02*Y330250D01*
Y334750D02*X45750Y335500D01*
X47250D01*
X48000Y334750D01*
Y330250D01*
X47250Y329500D02*X48000Y330250D01*
X45750Y329500D02*X47250D01*
X45000Y331000D02*X48000Y334000D01*
X49800Y329500D02*X50550D01*
X52350Y330250D02*X53100Y329500D01*
X52350Y334750D02*Y330250D01*
Y334750D02*X53100Y335500D01*
X54600D01*
X55350Y334750D01*
Y330250D01*
X54600Y329500D02*X55350Y330250D01*
X53100Y329500D02*X54600D01*
X52350Y331000D02*X55350Y334000D01*
X57150Y334750D02*X57900Y335500D01*
X59400D01*
X60150Y334750D01*
X59400Y329500D02*X60150Y330250D01*
X57900Y329500D02*X59400D01*
X57150Y330250D02*X57900Y329500D01*
Y332800D02*X59400D01*
X60150Y334750D02*Y333550D01*
Y332050D02*Y330250D01*
Y332050D02*X59400Y332800D01*
X60150Y333550D02*X59400Y332800D01*
X61950Y330250D02*X62700Y329500D01*
X61950Y334750D02*Y330250D01*
Y334750D02*X62700Y335500D01*
X64200D01*
X64950Y334750D01*
Y330250D01*
X64200Y329500D02*X64950Y330250D01*
X62700Y329500D02*X64200D01*
X61950Y331000D02*X64950Y334000D01*
X144000Y35600D02*Y32400D01*
X142400Y34000D02*X145600D01*
X144000Y45600D02*Y42400D01*
X142400Y44000D02*X145600D01*
X144000Y55600D02*Y52400D01*
X142400Y54000D02*X145600D01*
X144000Y65600D02*Y62400D01*
X142400Y64000D02*X145600D01*
X114000Y65600D02*Y62400D01*
X112400Y64000D02*X115600D01*
X114000Y55600D02*Y52400D01*
X112400Y54000D02*X115600D01*
X114000Y45600D02*Y42400D01*
X112400Y44000D02*X115600D01*
X114000Y35600D02*Y32400D01*
X112400Y34000D02*X115600D01*
X15000Y349850D02*Y346650D01*
X13400Y348250D02*X16600D01*
X135000Y350500D02*X136500Y347500D01*
X138000Y350500D01*
X136500Y347500D02*Y344500D01*
X139800Y347800D02*X142050D01*
X139800Y344500D02*X142800D01*
X139800Y350500D02*Y344500D01*
Y350500D02*X142800D01*
X147600D02*X148350Y349750D01*
X145350Y350500D02*X147600D01*
X144600Y349750D02*X145350Y350500D01*
X144600Y349750D02*Y348250D01*
X145350Y347500D01*
X147600D01*
X148350Y346750D01*
Y345250D01*
X147600Y344500D02*X148350Y345250D01*
X145350Y344500D02*X147600D01*
X144600Y345250D02*X145350Y344500D01*
X98000Y345250D02*X98750Y344500D01*
X98000Y346450D02*Y345250D01*
Y346450D02*X99050Y347500D01*
X99950D01*
X101000Y346450D01*
Y345250D01*
X100250Y344500D02*X101000Y345250D01*
X98750Y344500D02*X100250D01*
X98000Y348550D02*X99050Y347500D01*
X98000Y349750D02*Y348550D01*
Y349750D02*X98750Y350500D01*
X100250D01*
X101000Y349750D01*
Y348550D01*
X99950Y347500D02*X101000Y348550D01*
X45000Y345250D02*X45750Y344500D01*
X45000Y349750D02*Y345250D01*
Y349750D02*X45750Y350500D01*
X47250D01*
X48000Y349750D01*
Y345250D01*
X47250Y344500D02*X48000Y345250D01*
X45750Y344500D02*X47250D01*
X45000Y346000D02*X48000Y349000D01*
X49800Y344500D02*X50550D01*
X52350Y345250D02*X53100Y344500D01*
X52350Y349750D02*Y345250D01*
Y349750D02*X53100Y350500D01*
X54600D01*
X55350Y349750D01*
Y345250D01*
X54600Y344500D02*X55350Y345250D01*
X53100Y344500D02*X54600D01*
X52350Y346000D02*X55350Y349000D01*
X57150Y349750D02*X57900Y350500D01*
X60150D01*
X60900Y349750D01*
Y348250D01*
X57150Y344500D02*X60900Y348250D01*
X57150Y344500D02*X60900D01*
X62700Y345250D02*X63450Y344500D01*
X62700Y346450D02*Y345250D01*
Y346450D02*X63750Y347500D01*
X64650D01*
X65700Y346450D01*
Y345250D01*
X64950Y344500D02*X65700Y345250D01*
X63450Y344500D02*X64950D01*
X62700Y348550D02*X63750Y347500D01*
X62700Y349750D02*Y348550D01*
Y349750D02*X63450Y350500D01*
X64950D01*
X65700Y349750D01*
Y348550D01*
X64650Y347500D02*X65700Y348550D01*
X261723Y64764D02*Y63164D01*
Y64764D02*X263110Y65564D01*
X261723Y64764D02*X260336Y65564D01*
X262723Y82764D02*Y81164D01*
Y82764D02*X264110Y83564D01*
X262723Y82764D02*X261336Y83564D01*
X277723Y86764D02*Y85164D01*
Y86764D02*X279110Y87564D01*
X277723Y86764D02*X276336Y87564D01*
X289723Y91764D02*Y90164D01*
Y91764D02*X291110Y92564D01*
X289723Y91764D02*X288336Y92564D01*
X308723Y103764D02*Y102164D01*
Y103764D02*X310110Y104564D01*
X308723Y103764D02*X307336Y104564D01*
X357723Y123764D02*Y122164D01*
Y123764D02*X359110Y124564D01*
X357723Y123764D02*X356336Y124564D01*
X146000Y88000D02*Y86400D01*
Y88000D02*X147387Y88800D01*
X146000Y88000D02*X144613Y88800D01*
X88000Y39000D02*Y37400D01*
Y39000D02*X89387Y39800D01*
X88000Y39000D02*X86613Y39800D01*
X15000Y363250D02*Y361650D01*
Y363250D02*X16387Y364050D01*
X15000Y363250D02*X13613Y364050D01*
X135000Y365500D02*X136500Y362500D01*
X138000Y365500D01*
X136500Y362500D02*Y359500D01*
X139800Y362800D02*X142050D01*
X139800Y359500D02*X142800D01*
X139800Y365500D02*Y359500D01*
Y365500D02*X142800D01*
X147600D02*X148350Y364750D01*
X145350Y365500D02*X147600D01*
X144600Y364750D02*X145350Y365500D01*
X144600Y364750D02*Y363250D01*
X145350Y362500D01*
X147600D01*
X148350Y361750D01*
Y360250D01*
X147600Y359500D02*X148350Y360250D01*
X145350Y359500D02*X147600D01*
X144600Y360250D02*X145350Y359500D01*
X98000Y360250D02*X98750Y359500D01*
X98000Y361450D02*Y360250D01*
Y361450D02*X99050Y362500D01*
X99950D01*
X101000Y361450D01*
Y360250D01*
X100250Y359500D02*X101000Y360250D01*
X98750Y359500D02*X100250D01*
X98000Y363550D02*X99050Y362500D01*
X98000Y364750D02*Y363550D01*
Y364750D02*X98750Y365500D01*
X100250D01*
X101000Y364750D01*
Y363550D01*
X99950Y362500D02*X101000Y363550D01*
X45000Y360250D02*X45750Y359500D01*
X45000Y364750D02*Y360250D01*
Y364750D02*X45750Y365500D01*
X47250D01*
X48000Y364750D01*
Y360250D01*
X47250Y359500D02*X48000Y360250D01*
X45750Y359500D02*X47250D01*
X45000Y361000D02*X48000Y364000D01*
X49800Y359500D02*X50550D01*
X52350Y360250D02*X53100Y359500D01*
X52350Y364750D02*Y360250D01*
Y364750D02*X53100Y365500D01*
X54600D01*
X55350Y364750D01*
Y360250D01*
X54600Y359500D02*X55350Y360250D01*
X53100Y359500D02*X54600D01*
X52350Y361000D02*X55350Y364000D01*
X57150Y364750D02*X57900Y365500D01*
X60150D01*
X60900Y364750D01*
Y363250D01*
X57150Y359500D02*X60900Y363250D01*
X57150Y359500D02*X60900D01*
X62700Y360250D02*X63450Y359500D01*
X62700Y364750D02*Y360250D01*
Y364750D02*X63450Y365500D01*
X64950D01*
X65700Y364750D01*
Y360250D01*
X64950Y359500D02*X65700Y360250D01*
X63450Y359500D02*X64950D01*
X62700Y361000D02*X65700Y364000D01*
X3000Y380500D02*X3750Y379750D01*
X750Y380500D02*X3000D01*
X0Y379750D02*X750Y380500D01*
X0Y379750D02*Y378250D01*
X750Y377500D01*
X3000D01*
X3750Y376750D01*
Y375250D01*
X3000Y374500D02*X3750Y375250D01*
X750Y374500D02*X3000D01*
X0Y375250D02*X750Y374500D01*
X5550Y377500D02*Y375250D01*
X6300Y374500D01*
X8550Y377500D02*Y373000D01*
X7800Y372250D02*X8550Y373000D01*
X6300Y372250D02*X7800D01*
X5550Y373000D02*X6300Y372250D01*
Y374500D02*X7800D01*
X8550Y375250D01*
X11100Y376750D02*Y374500D01*
Y376750D02*X11850Y377500D01*
X12600D01*
X13350Y376750D01*
Y374500D01*
Y376750D02*X14100Y377500D01*
X14850D01*
X15600Y376750D01*
Y374500D01*
X10350Y377500D02*X11100Y376750D01*
X17400Y380500D02*Y374500D01*
Y375250D02*X18150Y374500D01*
X19650D01*
X20400Y375250D01*
Y376750D02*Y375250D01*
X19650Y377500D02*X20400Y376750D01*
X18150Y377500D02*X19650D01*
X17400Y376750D02*X18150Y377500D01*
X22200Y376750D02*Y375250D01*
Y376750D02*X22950Y377500D01*
X24450D01*
X25200Y376750D01*
Y375250D01*
X24450Y374500D02*X25200Y375250D01*
X22950Y374500D02*X24450D01*
X22200Y375250D02*X22950Y374500D01*
X27000Y380500D02*Y375250D01*
X27750Y374500D01*
X0Y371250D02*X29250D01*
X41750Y380500D02*Y374500D01*
X43700Y380500D02*X44750Y379450D01*
Y375550D01*
X43700Y374500D02*X44750Y375550D01*
X41000Y374500D02*X43700D01*
X41000Y380500D02*X43700D01*
G54D101*X46550Y379000D02*Y378850D01*
G54D100*Y376750D02*Y374500D01*
X50300Y377500D02*X51050Y376750D01*
X48800Y377500D02*X50300D01*
X48050Y376750D02*X48800Y377500D01*
X48050Y376750D02*Y375250D01*
X48800Y374500D01*
X51050Y377500D02*Y375250D01*
X51800Y374500D01*
X48800D02*X50300D01*
X51050Y375250D01*
X54350Y376750D02*Y374500D01*
Y376750D02*X55100Y377500D01*
X55850D01*
X56600Y376750D01*
Y374500D01*
Y376750D02*X57350Y377500D01*
X58100D01*
X58850Y376750D01*
Y374500D01*
X53600Y377500D02*X54350Y376750D01*
X60650Y374500D02*X61400D01*
X65900Y375250D02*X66650Y374500D01*
X65900Y379750D02*X66650Y380500D01*
X65900Y379750D02*Y375250D01*
X68450Y380500D02*X69950D01*
X69200D02*Y374500D01*
X68450D02*X69950D01*
X72500Y376750D02*Y374500D01*
Y376750D02*X73250Y377500D01*
X74000D01*
X74750Y376750D01*
Y374500D01*
X71750Y377500D02*X72500Y376750D01*
X77300Y377500D02*X79550D01*
X76550Y376750D02*X77300Y377500D01*
X76550Y376750D02*Y375250D01*
X77300Y374500D01*
X79550D01*
X81350Y380500D02*Y374500D01*
Y376750D02*X82100Y377500D01*
X83600D01*
X84350Y376750D01*
Y374500D01*
X86150Y380500D02*X86900Y379750D01*
Y375250D01*
X86150Y374500D02*X86900Y375250D01*
X41000Y371250D02*X88700D01*
X96050Y374500D02*X98000D01*
X95000Y375550D02*X96050Y374500D01*
X95000Y379450D02*Y375550D01*
Y379450D02*X96050Y380500D01*
X98000D01*
X99800Y376750D02*Y375250D01*
Y376750D02*X100550Y377500D01*
X102050D01*
X102800Y376750D01*
Y375250D01*
X102050Y374500D02*X102800Y375250D01*
X100550Y374500D02*X102050D01*
X99800Y375250D02*X100550Y374500D01*
X104600Y377500D02*Y375250D01*
X105350Y374500D01*
X106850D01*
X107600Y375250D01*
Y377500D02*Y375250D01*
X110150Y376750D02*Y374500D01*
Y376750D02*X110900Y377500D01*
X111650D01*
X112400Y376750D01*
Y374500D01*
X109400Y377500D02*X110150Y376750D01*
X114950Y380500D02*Y375250D01*
X115700Y374500D01*
X114200Y378250D02*X115700D01*
X95000Y371250D02*X117200D01*
X130750Y380500D02*Y374500D01*
X130000Y380500D02*X133000D01*
X133750Y379750D01*
Y378250D01*
X133000Y377500D02*X133750Y378250D01*
X130750Y377500D02*X133000D01*
X135550Y380500D02*Y375250D01*
X136300Y374500D01*
X140050Y377500D02*X140800Y376750D01*
X138550Y377500D02*X140050D01*
X137800Y376750D02*X138550Y377500D01*
X137800Y376750D02*Y375250D01*
X138550Y374500D01*
X140800Y377500D02*Y375250D01*
X141550Y374500D01*
X138550D02*X140050D01*
X140800Y375250D01*
X144100Y380500D02*Y375250D01*
X144850Y374500D01*
X143350Y378250D02*X144850D01*
X147100Y374500D02*X149350D01*
X146350Y375250D02*X147100Y374500D01*
X146350Y376750D02*Y375250D01*
Y376750D02*X147100Y377500D01*
X148600D01*
X149350Y376750D01*
X146350Y376000D02*X149350D01*
Y376750D02*Y376000D01*
X154150Y380500D02*Y374500D01*
X153400D02*X154150Y375250D01*
X151900Y374500D02*X153400D01*
X151150Y375250D02*X151900Y374500D01*
X151150Y376750D02*Y375250D01*
Y376750D02*X151900Y377500D01*
X153400D01*
X154150Y376750D01*
X157450Y377500D02*Y376750D01*
Y375250D02*Y374500D01*
X155950Y379750D02*Y379000D01*
Y379750D02*X156700Y380500D01*
X158200D01*
X158950Y379750D01*
Y379000D01*
X157450Y377500D02*X158950Y379000D01*
X130000Y371250D02*X160750D01*
X0Y395500D02*X3000D01*
X1500D02*Y389500D01*
X4800Y395500D02*Y389500D01*
Y391750D02*X5550Y392500D01*
X7050D01*
X7800Y391750D01*
Y389500D01*
X10350D02*X12600D01*
X9600Y390250D02*X10350Y389500D01*
X9600Y391750D02*Y390250D01*
Y391750D02*X10350Y392500D01*
X11850D01*
X12600Y391750D01*
X9600Y391000D02*X12600D01*
Y391750D02*Y391000D01*
X15150Y391750D02*Y389500D01*
Y391750D02*X15900Y392500D01*
X17400D01*
X14400D02*X15150Y391750D01*
X19950Y389500D02*X22200D01*
X19200Y390250D02*X19950Y389500D01*
X19200Y391750D02*Y390250D01*
Y391750D02*X19950Y392500D01*
X21450D01*
X22200Y391750D01*
X19200Y391000D02*X22200D01*
Y391750D02*Y391000D01*
X28950Y392500D02*X29700Y391750D01*
X27450Y392500D02*X28950D01*
X26700Y391750D02*X27450Y392500D01*
X26700Y391750D02*Y390250D01*
X27450Y389500D01*
X29700Y392500D02*Y390250D01*
X30450Y389500D01*
X27450D02*X28950D01*
X29700Y390250D01*
X33000Y391750D02*Y389500D01*
Y391750D02*X33750Y392500D01*
X35250D01*
X32250D02*X33000Y391750D01*
X37800Y389500D02*X40050D01*
X37050Y390250D02*X37800Y389500D01*
X37050Y391750D02*Y390250D01*
Y391750D02*X37800Y392500D01*
X39300D01*
X40050Y391750D01*
X37050Y391000D02*X40050D01*
Y391750D02*Y391000D01*
X44550Y394300D02*X45750Y395500D01*
Y389500D01*
X44550D02*X46800D01*
X48600Y394300D02*X49800Y395500D01*
Y389500D01*
X48600D02*X50850D01*
X58350Y395500D02*Y389500D01*
X57600D02*X58350Y390250D01*
X56100Y389500D02*X57600D01*
X55350Y390250D02*X56100Y389500D01*
X55350Y391750D02*Y390250D01*
Y391750D02*X56100Y392500D01*
X57600D01*
X58350Y391750D01*
G54D101*X60150Y394000D02*Y393850D01*
G54D100*Y391750D02*Y389500D01*
X62400Y394750D02*Y389500D01*
Y394750D02*X63150Y395500D01*
X63900D01*
X61650Y392500D02*X63150D01*
X66150Y394750D02*Y389500D01*
Y394750D02*X66900Y395500D01*
X67650D01*
X65400Y392500D02*X66900D01*
X69900Y389500D02*X72150D01*
X69150Y390250D02*X69900Y389500D01*
X69150Y391750D02*Y390250D01*
Y391750D02*X69900Y392500D01*
X71400D01*
X72150Y391750D01*
X69150Y391000D02*X72150D01*
Y391750D02*Y391000D01*
X74700Y391750D02*Y389500D01*
Y391750D02*X75450Y392500D01*
X76950D01*
X73950D02*X74700Y391750D01*
X79500Y389500D02*X81750D01*
X78750Y390250D02*X79500Y389500D01*
X78750Y391750D02*Y390250D01*
Y391750D02*X79500Y392500D01*
X81000D01*
X81750Y391750D01*
X78750Y391000D02*X81750D01*
Y391750D02*Y391000D01*
X84300Y391750D02*Y389500D01*
Y391750D02*X85050Y392500D01*
X85800D01*
X86550Y391750D01*
Y389500D01*
X83550Y392500D02*X84300Y391750D01*
X89100Y395500D02*Y390250D01*
X89850Y389500D01*
X88350Y393250D02*X89850D01*
X97050Y395500D02*Y389500D01*
X96300D02*X97050Y390250D01*
X94800Y389500D02*X96300D01*
X94050Y390250D02*X94800Y389500D01*
X94050Y391750D02*Y390250D01*
Y391750D02*X94800Y392500D01*
X96300D01*
X97050Y391750D01*
X99600D02*Y389500D01*
Y391750D02*X100350Y392500D01*
X101850D01*
X98850D02*X99600Y391750D01*
G54D101*X103650Y394000D02*Y393850D01*
G54D100*Y391750D02*Y389500D01*
X105150Y395500D02*Y390250D01*
X105900Y389500D01*
X107400Y395500D02*Y390250D01*
X108150Y389500D01*
X113100D02*X115350D01*
X116100Y390250D01*
X115350Y391000D02*X116100Y390250D01*
X113100Y391000D02*X115350D01*
X112350Y391750D02*X113100Y391000D01*
X112350Y391750D02*X113100Y392500D01*
X115350D01*
X116100Y391750D01*
X112350Y390250D02*X113100Y389500D01*
G54D101*X117900Y394000D02*Y393850D01*
G54D100*Y391750D02*Y389500D01*
X119400Y392500D02*X122400D01*
X119400Y389500D02*X122400Y392500D01*
X119400Y389500D02*X122400D01*
X124950D02*X127200D01*
X124200Y390250D02*X124950Y389500D01*
X124200Y391750D02*Y390250D01*
Y391750D02*X124950Y392500D01*
X126450D01*
X127200Y391750D01*
X124200Y391000D02*X127200D01*
Y391750D02*Y391000D01*
X129750Y389500D02*X132000D01*
X132750Y390250D01*
X132000Y391000D02*X132750Y390250D01*
X129750Y391000D02*X132000D01*
X129000Y391750D02*X129750Y391000D01*
X129000Y391750D02*X129750Y392500D01*
X132000D01*
X132750Y391750D01*
X129000Y390250D02*X129750Y389500D01*
X137250Y392500D02*Y390250D01*
X138000Y389500D01*
X139500D01*
X140250Y390250D01*
Y392500D02*Y390250D01*
X142800Y389500D02*X145050D01*
X145800Y390250D01*
X145050Y391000D02*X145800Y390250D01*
X142800Y391000D02*X145050D01*
X142050Y391750D02*X142800Y391000D01*
X142050Y391750D02*X142800Y392500D01*
X145050D01*
X145800Y391750D01*
X142050Y390250D02*X142800Y389500D01*
X148350D02*X150600D01*
X147600Y390250D02*X148350Y389500D01*
X147600Y391750D02*Y390250D01*
Y391750D02*X148350Y392500D01*
X149850D01*
X150600Y391750D01*
X147600Y391000D02*X150600D01*
Y391750D02*Y391000D01*
X155400Y395500D02*Y389500D01*
X154650D02*X155400Y390250D01*
X153150Y389500D02*X154650D01*
X152400Y390250D02*X153150Y389500D01*
X152400Y391750D02*Y390250D01*
Y391750D02*X153150Y392500D01*
X154650D01*
X155400Y391750D01*
G54D101*X159900Y394000D02*Y393850D01*
G54D100*Y391750D02*Y389500D01*
X162150Y391750D02*Y389500D01*
Y391750D02*X162900Y392500D01*
X163650D01*
X164400Y391750D01*
Y389500D01*
X161400Y392500D02*X162150Y391750D01*
X169650Y395500D02*Y390250D01*
X170400Y389500D01*
X168900Y393250D02*X170400D01*
X171900Y395500D02*Y389500D01*
Y391750D02*X172650Y392500D01*
X174150D01*
X174900Y391750D01*
Y389500D01*
G54D101*X176700Y394000D02*Y393850D01*
G54D100*Y391750D02*Y389500D01*
X178950D02*X181200D01*
X181950Y390250D01*
X181200Y391000D02*X181950Y390250D01*
X178950Y391000D02*X181200D01*
X178200Y391750D02*X178950Y391000D01*
X178200Y391750D02*X178950Y392500D01*
X181200D01*
X181950Y391750D01*
X178200Y390250D02*X178950Y389500D01*
X186450Y395500D02*Y390250D01*
X187200Y389500D01*
X190950Y392500D02*X191700Y391750D01*
X189450Y392500D02*X190950D01*
X188700Y391750D02*X189450Y392500D01*
X188700Y391750D02*Y390250D01*
X189450Y389500D01*
X191700Y392500D02*Y390250D01*
X192450Y389500D01*
X189450D02*X190950D01*
X191700Y390250D01*
X194250Y392500D02*Y390250D01*
X195000Y389500D01*
X197250Y392500D02*Y388000D01*
X196500Y387250D02*X197250Y388000D01*
X195000Y387250D02*X196500D01*
X194250Y388000D02*X195000Y387250D01*
Y389500D02*X196500D01*
X197250Y390250D01*
X199050Y391750D02*Y390250D01*
Y391750D02*X199800Y392500D01*
X201300D01*
X202050Y391750D01*
Y390250D01*
X201300Y389500D02*X202050Y390250D01*
X199800Y389500D02*X201300D01*
X199050Y390250D02*X199800Y389500D01*
X203850Y392500D02*Y390250D01*
X204600Y389500D01*
X206100D01*
X206850Y390250D01*
Y392500D02*Y390250D01*
X209400Y395500D02*Y390250D01*
X210150Y389500D01*
X208650Y393250D02*X210150D01*
X211650Y388000D02*X213150Y389500D01*
X217650Y394300D02*X218850Y395500D01*
Y389500D01*
X217650D02*X219900D01*
X221700Y394750D02*X222450Y395500D01*
X224700D01*
X225450Y394750D01*
Y393250D01*
X221700Y389500D02*X225450Y393250D01*
X221700Y389500D02*X225450D01*
X227250Y391750D02*X230250Y395500D01*
X227250Y391750D02*X231000D01*
X230250Y395500D02*Y389500D01*
X235500Y395500D02*Y389500D01*
Y391750D02*X236250Y392500D01*
X237750D01*
X238500Y391750D01*
Y389500D01*
X240300Y391750D02*Y390250D01*
Y391750D02*X241050Y392500D01*
X242550D01*
X243300Y391750D01*
Y390250D01*
X242550Y389500D02*X243300Y390250D01*
X241050Y389500D02*X242550D01*
X240300Y390250D02*X241050Y389500D01*
X245100Y395500D02*Y390250D01*
X245850Y389500D01*
X248100D02*X250350D01*
X247350Y390250D02*X248100Y389500D01*
X247350Y391750D02*Y390250D01*
Y391750D02*X248100Y392500D01*
X249600D01*
X250350Y391750D01*
X247350Y391000D02*X250350D01*
Y391750D02*Y391000D01*
X252900Y389500D02*X255150D01*
X255900Y390250D01*
X255150Y391000D02*X255900Y390250D01*
X252900Y391000D02*X255150D01*
X252150Y391750D02*X252900Y391000D01*
X252150Y391750D02*X252900Y392500D01*
X255150D01*
X255900Y391750D01*
X252150Y390250D02*X252900Y389500D01*
X261150Y395500D02*Y390250D01*
X261900Y389500D01*
X260400Y393250D02*X261900D01*
X263400Y391750D02*Y390250D01*
Y391750D02*X264150Y392500D01*
X265650D01*
X266400Y391750D01*
Y390250D01*
X265650Y389500D02*X266400Y390250D01*
X264150Y389500D02*X265650D01*
X263400Y390250D02*X264150Y389500D01*
X268950Y395500D02*Y390250D01*
X269700Y389500D01*
X268200Y393250D02*X269700D01*
X273450Y392500D02*X274200Y391750D01*
X271950Y392500D02*X273450D01*
X271200Y391750D02*X271950Y392500D01*
X271200Y391750D02*Y390250D01*
X271950Y389500D01*
X274200Y392500D02*Y390250D01*
X274950Y389500D01*
X271950D02*X273450D01*
X274200Y390250D01*
X276750Y395500D02*Y390250D01*
X277500Y389500D01*
G54D102*X0Y202000D02*Y0D01*
X500000D01*
Y202000D01*
X0D01*
G54D100*X163675Y-9500D02*X166675D01*
X167425Y-8750D01*
Y-6950D02*Y-8750D01*
X166675Y-6200D02*X167425Y-6950D01*
X164425Y-6200D02*X166675D01*
X164425Y-3500D02*Y-9500D01*
X163675Y-3500D02*X166675D01*
X167425Y-4250D01*
Y-5450D01*
X166675Y-6200D02*X167425Y-5450D01*
X169225Y-7250D02*Y-8750D01*
Y-7250D02*X169975Y-6500D01*
X171475D01*
X172225Y-7250D01*
Y-8750D01*
X171475Y-9500D02*X172225Y-8750D01*
X169975Y-9500D02*X171475D01*
X169225Y-8750D02*X169975Y-9500D01*
X176275Y-6500D02*X177025Y-7250D01*
X174775Y-6500D02*X176275D01*
X174025Y-7250D02*X174775Y-6500D01*
X174025Y-7250D02*Y-8750D01*
X174775Y-9500D01*
X177025Y-6500D02*Y-8750D01*
X177775Y-9500D01*
X174775D02*X176275D01*
X177025Y-8750D01*
X180325Y-7250D02*Y-9500D01*
Y-7250D02*X181075Y-6500D01*
X182575D01*
X179575D02*X180325Y-7250D01*
X187375Y-3500D02*Y-9500D01*
X186625D02*X187375Y-8750D01*
X185125Y-9500D02*X186625D01*
X184375Y-8750D02*X185125Y-9500D01*
X184375Y-7250D02*Y-8750D01*
Y-7250D02*X185125Y-6500D01*
X186625D01*
X187375Y-7250D01*
X191875D02*Y-8750D01*
Y-7250D02*X192625Y-6500D01*
X194125D01*
X194875Y-7250D01*
Y-8750D01*
X194125Y-9500D02*X194875Y-8750D01*
X192625Y-9500D02*X194125D01*
X191875Y-8750D02*X192625Y-9500D01*
X196675Y-6500D02*Y-8750D01*
X197425Y-9500D01*
X198925D01*
X199675Y-8750D01*
Y-6500D02*Y-8750D01*
X202225Y-3500D02*Y-8750D01*
X202975Y-9500D01*
X201475Y-5750D02*X202975D01*
X204475Y-3500D02*Y-8750D01*
X205225Y-9500D01*
G54D101*X206725Y-5000D02*Y-5150D01*
G54D100*Y-7250D02*Y-9500D01*
X208975Y-7250D02*Y-9500D01*
Y-7250D02*X209725Y-6500D01*
X210475D01*
X211225Y-7250D01*
Y-9500D01*
X208225Y-6500D02*X208975Y-7250D01*
X213775Y-9500D02*X216025D01*
X213025Y-8750D02*X213775Y-9500D01*
X213025Y-7250D02*Y-8750D01*
Y-7250D02*X213775Y-6500D01*
X215275D01*
X216025Y-7250D01*
X213025Y-8000D02*X216025D01*
Y-7250D02*Y-8000D01*
G54D101*X220525Y-5000D02*Y-5150D01*
G54D100*Y-7250D02*Y-9500D01*
X222775D02*X225025D01*
X225775Y-8750D01*
X225025Y-8000D02*X225775Y-8750D01*
X222775Y-8000D02*X225025D01*
X222025Y-7250D02*X222775Y-8000D01*
X222025Y-7250D02*X222775Y-6500D01*
X225025D01*
X225775Y-7250D01*
X222025Y-8750D02*X222775Y-9500D01*
X231025Y-3500D02*Y-8750D01*
X231775Y-9500D01*
X230275Y-5750D02*X231775D01*
X233275Y-3500D02*Y-9500D01*
Y-7250D02*X234025Y-6500D01*
X235525D01*
X236275Y-7250D01*
Y-9500D01*
X238825D02*X241075D01*
X238075Y-8750D02*X238825Y-9500D01*
X238075Y-7250D02*Y-8750D01*
Y-7250D02*X238825Y-6500D01*
X240325D01*
X241075Y-7250D01*
X238075Y-8000D02*X241075D01*
Y-7250D02*Y-8000D01*
X246325Y-6500D02*X248575D01*
X245575Y-7250D02*X246325Y-6500D01*
X245575Y-7250D02*Y-8750D01*
X246325Y-9500D01*
X248575D01*
X251125D02*X253375D01*
X250375Y-8750D02*X251125Y-9500D01*
X250375Y-7250D02*Y-8750D01*
Y-7250D02*X251125Y-6500D01*
X252625D01*
X253375Y-7250D01*
X250375Y-8000D02*X253375D01*
Y-7250D02*Y-8000D01*
X255925Y-7250D02*Y-9500D01*
Y-7250D02*X256675Y-6500D01*
X257425D01*
X258175Y-7250D01*
Y-9500D01*
X255175Y-6500D02*X255925Y-7250D01*
X260725Y-3500D02*Y-8750D01*
X261475Y-9500D01*
X259975Y-5750D02*X261475D01*
X263725Y-9500D02*X265975D01*
X262975Y-8750D02*X263725Y-9500D01*
X262975Y-7250D02*Y-8750D01*
Y-7250D02*X263725Y-6500D01*
X265225D01*
X265975Y-7250D01*
X262975Y-8000D02*X265975D01*
Y-7250D02*Y-8000D01*
X268525Y-7250D02*Y-9500D01*
Y-7250D02*X269275Y-6500D01*
X270775D01*
X267775D02*X268525Y-7250D01*
X272575Y-3500D02*Y-8750D01*
X273325Y-9500D01*
G54D101*X274825Y-5000D02*Y-5150D01*
G54D100*Y-7250D02*Y-9500D01*
X277075Y-7250D02*Y-9500D01*
Y-7250D02*X277825Y-6500D01*
X278575D01*
X279325Y-7250D01*
Y-9500D01*
X276325Y-6500D02*X277075Y-7250D01*
X281875Y-9500D02*X284125D01*
X281125Y-8750D02*X281875Y-9500D01*
X281125Y-7250D02*Y-8750D01*
Y-7250D02*X281875Y-6500D01*
X283375D01*
X284125Y-7250D01*
X281125Y-8000D02*X284125D01*
Y-7250D02*Y-8000D01*
X288625Y-7250D02*Y-8750D01*
Y-7250D02*X289375Y-6500D01*
X290875D01*
X291625Y-7250D01*
Y-8750D01*
X290875Y-9500D02*X291625Y-8750D01*
X289375Y-9500D02*X290875D01*
X288625Y-8750D02*X289375Y-9500D01*
X294175Y-4250D02*Y-9500D01*
Y-4250D02*X294925Y-3500D01*
X295675D01*
X293425Y-6500D02*X294925D01*
X300625Y-3500D02*Y-8750D01*
X301375Y-9500D01*
X299875Y-5750D02*X301375D01*
X302875Y-3500D02*Y-9500D01*
Y-7250D02*X303625Y-6500D01*
X305125D01*
X305875Y-7250D01*
Y-9500D01*
G54D101*X307675Y-5000D02*Y-5150D01*
G54D100*Y-7250D02*Y-9500D01*
X309925D02*X312175D01*
X312925Y-8750D01*
X312175Y-8000D02*X312925Y-8750D01*
X309925Y-8000D02*X312175D01*
X309175Y-7250D02*X309925Y-8000D01*
X309175Y-7250D02*X309925Y-6500D01*
X312175D01*
X312925Y-7250D01*
X309175Y-8750D02*X309925Y-9500D01*
X318175Y-7250D02*Y-11750D01*
X317425Y-6500D02*X318175Y-7250D01*
X318925Y-6500D01*
X320425D01*
X321175Y-7250D01*
Y-8750D01*
X320425Y-9500D02*X321175Y-8750D01*
X318925Y-9500D02*X320425D01*
X318175Y-8750D02*X318925Y-9500D01*
X325225Y-6500D02*X325975Y-7250D01*
X323725Y-6500D02*X325225D01*
X322975Y-7250D02*X323725Y-6500D01*
X322975Y-7250D02*Y-8750D01*
X323725Y-9500D01*
X325975Y-6500D02*Y-8750D01*
X326725Y-9500D01*
X323725D02*X325225D01*
X325975Y-8750D01*
X329275Y-3500D02*Y-8750D01*
X330025Y-9500D01*
X328525Y-5750D02*X330025D01*
X331525Y-3500D02*Y-9500D01*
Y-7250D02*X332275Y-6500D01*
X333775D01*
X334525Y-7250D01*
Y-9500D01*
X200750Y230500D02*Y224500D01*
X202700Y230500D02*X203750Y229450D01*
Y225550D01*
X202700Y224500D02*X203750Y225550D01*
X200000Y224500D02*X202700D01*
X200000Y230500D02*X202700D01*
X207800Y227500D02*X208550Y226750D01*
X206300Y227500D02*X207800D01*
X205550Y226750D02*X206300Y227500D01*
X205550Y226750D02*Y225250D01*
X206300Y224500D01*
X208550Y227500D02*Y225250D01*
X209300Y224500D01*
X206300D02*X207800D01*
X208550Y225250D01*
X211850Y230500D02*Y225250D01*
X212600Y224500D01*
X211100Y228250D02*X212600D01*
X214850Y224500D02*X217100D01*
X214100Y225250D02*X214850Y224500D01*
X214100Y226750D02*Y225250D01*
Y226750D02*X214850Y227500D01*
X216350D01*
X217100Y226750D01*
X214100Y226000D02*X217100D01*
Y226750D02*Y226000D01*
X218900Y228250D02*X219650D01*
X218900Y226750D02*X219650D01*
X224150Y230500D02*Y224500D01*
Y230500D02*X227150D01*
X224150Y227800D02*X226400D01*
X229700Y226750D02*Y224500D01*
Y226750D02*X230450Y227500D01*
X231950D01*
X228950D02*X229700Y226750D01*
G54D101*X233750Y229000D02*Y228850D01*
G54D100*Y226750D02*Y224500D01*
X237950Y225250D02*X238700Y224500D01*
X237950Y229750D02*Y225250D01*
Y229750D02*X238700Y230500D01*
X240200D01*
X240950Y229750D01*
Y225250D01*
X240200Y224500D02*X240950Y225250D01*
X238700Y224500D02*X240200D01*
X237950Y226000D02*X240950Y229000D01*
X243500Y224500D02*X246500Y230500D01*
X242750D02*X246500D01*
X251000D02*Y224500D01*
Y230500D02*X253250Y227500D01*
X255500Y230500D01*
Y224500D01*
X259550Y227500D02*X260300Y226750D01*
X258050Y227500D02*X259550D01*
X257300Y226750D02*X258050Y227500D01*
X257300Y226750D02*Y225250D01*
X258050Y224500D01*
X260300Y227500D02*Y225250D01*
X261050Y224500D01*
X258050D02*X259550D01*
X260300Y225250D01*
X263600Y226750D02*Y224500D01*
Y226750D02*X264350Y227500D01*
X265850D01*
X262850D02*X263600Y226750D01*
X270350Y229750D02*X271100Y230500D01*
X273350D01*
X274100Y229750D01*
Y228250D01*
X270350Y224500D02*X274100Y228250D01*
X270350Y224500D02*X274100D01*
X275900Y225250D02*X276650Y224500D01*
X275900Y229750D02*Y225250D01*
Y229750D02*X276650Y230500D01*
X278150D01*
X278900Y229750D01*
Y225250D01*
X278150Y224500D02*X278900Y225250D01*
X276650Y224500D02*X278150D01*
X275900Y226000D02*X278900Y229000D01*
X280700Y229300D02*X281900Y230500D01*
Y224500D01*
X280700D02*X282950D01*
X284750Y226750D02*X287750Y230500D01*
X284750Y226750D02*X288500D01*
X287750Y230500D02*Y224500D01*
X293000Y225250D02*X293750Y224500D01*
X293000Y229750D02*Y225250D01*
Y229750D02*X293750Y230500D01*
X295250D01*
X296000Y229750D01*
Y225250D01*
X295250Y224500D02*X296000Y225250D01*
X293750Y224500D02*X295250D01*
X293000Y226000D02*X296000Y229000D01*
X297800Y225250D02*X298550Y224500D01*
X297800Y226450D02*Y225250D01*
Y226450D02*X298850Y227500D01*
X299750D01*
X300800Y226450D01*
Y225250D01*
X300050Y224500D02*X300800Y225250D01*
X298550Y224500D02*X300050D01*
X297800Y228550D02*X298850Y227500D01*
X297800Y229750D02*Y228550D01*
Y229750D02*X298550Y230500D01*
X300050D01*
X300800Y229750D01*
Y228550D01*
X299750Y227500D02*X300800Y228550D01*
X302600Y228250D02*X303350D01*
X302600Y226750D02*X303350D01*
X305150Y229750D02*X305900Y230500D01*
X307400D01*
X308150Y229750D01*
X307400Y224500D02*X308150Y225250D01*
X305900Y224500D02*X307400D01*
X305150Y225250D02*X305900Y224500D01*
Y227800D02*X307400D01*
X308150Y229750D02*Y228550D01*
Y227050D02*Y225250D01*
Y227050D02*X307400Y227800D01*
X308150Y228550D02*X307400Y227800D01*
X312200Y230500D02*X312950Y229750D01*
X310700Y230500D02*X312200D01*
X309950Y229750D02*X310700Y230500D01*
X309950Y229750D02*Y225250D01*
X310700Y224500D01*
X312200Y227800D02*X312950Y227050D01*
X309950Y227800D02*X312200D01*
X310700Y224500D02*X312200D01*
X312950Y225250D01*
Y227050D02*Y225250D01*
X314750Y228250D02*X315500D01*
X314750Y226750D02*X315500D01*
X317300Y229750D02*X318050Y230500D01*
X320300D01*
X321050Y229750D01*
Y228250D01*
X317300Y224500D02*X321050Y228250D01*
X317300Y224500D02*X321050D01*
X322850Y226750D02*X325850Y230500D01*
X322850Y226750D02*X326600D01*
X325850Y230500D02*Y224500D01*
X331850Y230500D02*Y224500D01*
X331100Y230500D02*X334100D01*
X334850Y229750D01*
Y228250D01*
X334100Y227500D02*X334850Y228250D01*
X331850Y227500D02*X334100D01*
X336650Y230500D02*Y224500D01*
Y230500D02*X338900Y227500D01*
X341150Y230500D01*
Y224500D01*
X348650Y230500D02*X349400Y229750D01*
X346400Y230500D02*X348650D01*
X345650Y229750D02*X346400Y230500D01*
X345650Y229750D02*Y225250D01*
X346400Y224500D01*
X348650D01*
X349400Y225250D01*
Y226750D02*Y225250D01*
X348650Y227500D02*X349400Y226750D01*
X347150Y227500D02*X348650D01*
X351200Y230500D02*Y224500D01*
Y230500D02*X353450Y227500D01*
X355700Y230500D01*
Y224500D01*
X357500Y230500D02*X360500D01*
X359000D02*Y224500D01*
X365000Y230500D02*Y225250D01*
X365750Y224500D01*
X367250D01*
X368000Y225250D01*
Y230500D02*Y225250D01*
X369800Y230500D02*X372800D01*
X371300D02*Y224500D01*
X375650D02*X377600D01*
X374600Y225550D02*X375650Y224500D01*
X374600Y229450D02*Y225550D01*
Y229450D02*X375650Y230500D01*
X377600D01*
X200000Y244000D02*Y239500D01*
Y244000D02*X201050Y245500D01*
X202700D01*
X203750Y244000D01*
Y239500D01*
X200000Y242500D02*X203750D01*
X205550D02*Y240250D01*
X206300Y239500D01*
X207800D01*
X208550Y240250D01*
Y242500D02*Y240250D01*
X211100Y245500D02*Y240250D01*
X211850Y239500D01*
X210350Y243250D02*X211850D01*
X213350Y245500D02*Y239500D01*
Y241750D02*X214100Y242500D01*
X215600D01*
X216350Y241750D01*
Y239500D01*
X218150Y241750D02*Y240250D01*
Y241750D02*X218900Y242500D01*
X220400D01*
X221150Y241750D01*
Y240250D01*
X220400Y239500D02*X221150Y240250D01*
X218900Y239500D02*X220400D01*
X218150Y240250D02*X218900Y239500D01*
X223700Y241750D02*Y239500D01*
Y241750D02*X224450Y242500D01*
X225950D01*
X222950D02*X223700Y241750D01*
X227750Y243250D02*X228500D01*
X227750Y241750D02*X228500D01*
X234050Y245500D02*X235250D01*
Y240250D01*
X234500Y239500D02*X235250Y240250D01*
X233750Y239500D02*X234500D01*
X233000Y240250D02*X233750Y239500D01*
X233000Y241000D02*Y240250D01*
X239300Y242500D02*X240050Y241750D01*
X237800Y242500D02*X239300D01*
X237050Y241750D02*X237800Y242500D01*
X237050Y241750D02*Y240250D01*
X237800Y239500D01*
X240050Y242500D02*Y240250D01*
X240800Y239500D01*
X237800D02*X239300D01*
X240050Y240250D01*
X243350Y239500D02*X245600D01*
X246350Y240250D01*
X245600Y241000D02*X246350Y240250D01*
X243350Y241000D02*X245600D01*
X242600Y241750D02*X243350Y241000D01*
X242600Y241750D02*X243350Y242500D01*
X245600D01*
X246350Y241750D01*
X242600Y240250D02*X243350Y239500D01*
X248150Y241750D02*Y240250D01*
Y241750D02*X248900Y242500D01*
X250400D01*
X251150Y241750D01*
Y240250D01*
X250400Y239500D02*X251150Y240250D01*
X248900Y239500D02*X250400D01*
X248150Y240250D02*X248900Y239500D01*
X253700Y241750D02*Y239500D01*
Y241750D02*X254450Y242500D01*
X255200D01*
X255950Y241750D01*
Y239500D01*
X252950Y242500D02*X253700Y241750D01*
X261200Y245500D02*Y239500D01*
X260450Y245500D02*X263450D01*
X264200Y244750D01*
Y243250D01*
X263450Y242500D02*X264200Y243250D01*
X261200Y242500D02*X263450D01*
X266000D02*Y240250D01*
X266750Y239500D01*
X268250D01*
X269000Y240250D01*
Y242500D02*Y240250D01*
X270800Y245500D02*Y240250D01*
X271550Y239500D01*
X273800D02*X276050D01*
X276800Y240250D01*
X276050Y241000D02*X276800Y240250D01*
X273800Y241000D02*X276050D01*
X273050Y241750D02*X273800Y241000D01*
X273050Y241750D02*X273800Y242500D01*
X276050D01*
X276800Y241750D01*
X273050Y240250D02*X273800Y239500D01*
X200000Y260500D02*X203000D01*
X201500D02*Y254500D01*
G54D101*X204800Y259000D02*Y258850D01*
G54D100*Y256750D02*Y254500D01*
X207050Y260500D02*Y255250D01*
X207800Y254500D01*
X206300Y258250D02*X207800D01*
X209300Y260500D02*Y255250D01*
X210050Y254500D01*
X212300D02*X214550D01*
X211550Y255250D02*X212300Y254500D01*
X211550Y256750D02*Y255250D01*
Y256750D02*X212300Y257500D01*
X213800D01*
X214550Y256750D01*
X211550Y256000D02*X214550D01*
Y256750D02*Y256000D01*
X216350Y258250D02*X217100D01*
X216350Y256750D02*X217100D01*
X221600Y255250D02*X222350Y254500D01*
X221600Y259750D02*X222350Y260500D01*
X221600Y259750D02*Y255250D01*
X224150Y257500D02*Y255250D01*
X224900Y254500D01*
X226400D01*
X227150Y255250D01*
Y257500D02*Y255250D01*
X229700Y256750D02*Y254500D01*
Y256750D02*X230450Y257500D01*
X231200D01*
X231950Y256750D01*
Y254500D01*
X228950Y257500D02*X229700Y256750D01*
X233750Y260500D02*Y254500D01*
Y256750D02*X236000Y254500D01*
X233750Y256750D02*X235250Y258250D01*
X238550Y256750D02*Y254500D01*
Y256750D02*X239300Y257500D01*
X240050D01*
X240800Y256750D01*
Y254500D01*
X237800Y257500D02*X238550Y256750D01*
X242600D02*Y255250D01*
Y256750D02*X243350Y257500D01*
X244850D01*
X245600Y256750D01*
Y255250D01*
X244850Y254500D02*X245600Y255250D01*
X243350Y254500D02*X244850D01*
X242600Y255250D02*X243350Y254500D01*
X247400Y257500D02*Y255250D01*
X248150Y254500D01*
X248900D01*
X249650Y255250D01*
Y257500D02*Y255250D01*
X250400Y254500D01*
X251150D01*
X251900Y255250D01*
Y257500D02*Y255250D01*
X254450Y256750D02*Y254500D01*
Y256750D02*X255200Y257500D01*
X255950D01*
X256700Y256750D01*
Y254500D01*
X253700Y257500D02*X254450Y256750D01*
X258500Y260500D02*X259250Y259750D01*
Y255250D01*
X258500Y254500D02*X259250Y255250D01*
X263750Y257500D02*X266750D01*
X271250Y260500D02*Y254500D01*
Y260500D02*X274250D01*
X271250Y257800D02*X273500D01*
X278300Y257500D02*X279050Y256750D01*
X276800Y257500D02*X278300D01*
X276050Y256750D02*X276800Y257500D01*
X276050Y256750D02*Y255250D01*
X276800Y254500D01*
X279050Y257500D02*Y255250D01*
X279800Y254500D01*
X276800D02*X278300D01*
X279050Y255250D01*
X281600Y260500D02*Y254500D01*
Y255250D02*X282350Y254500D01*
X283850D01*
X284600Y255250D01*
Y256750D02*Y255250D01*
X283850Y257500D02*X284600Y256750D01*
X282350Y257500D02*X283850D01*
X281600Y256750D02*X282350Y257500D01*
X287150Y256750D02*Y254500D01*
Y256750D02*X287900Y257500D01*
X289400D01*
X286400D02*X287150Y256750D01*
G54D101*X291200Y259000D02*Y258850D01*
G54D100*Y256750D02*Y254500D01*
X293450Y257500D02*X295700D01*
X292700Y256750D02*X293450Y257500D01*
X292700Y256750D02*Y255250D01*
X293450Y254500D01*
X295700D01*
X299750Y257500D02*X300500Y256750D01*
X298250Y257500D02*X299750D01*
X297500Y256750D02*X298250Y257500D01*
X297500Y256750D02*Y255250D01*
X298250Y254500D01*
X300500Y257500D02*Y255250D01*
X301250Y254500D01*
X298250D02*X299750D01*
X300500Y255250D01*
X303800Y260500D02*Y255250D01*
X304550Y254500D01*
X303050Y258250D02*X304550D01*
G54D101*X306050Y259000D02*Y258850D01*
G54D100*Y256750D02*Y254500D01*
X307550Y256750D02*Y255250D01*
Y256750D02*X308300Y257500D01*
X309800D01*
X310550Y256750D01*
Y255250D01*
X309800Y254500D02*X310550Y255250D01*
X308300Y254500D02*X309800D01*
X307550Y255250D02*X308300Y254500D01*
X313100Y256750D02*Y254500D01*
Y256750D02*X313850Y257500D01*
X314600D01*
X315350Y256750D01*
Y254500D01*
X312350Y257500D02*X313100Y256750D01*
X320600Y260500D02*Y254500D01*
X322550Y260500D02*X323600Y259450D01*
Y255550D01*
X322550Y254500D02*X323600Y255550D01*
X319850Y254500D02*X322550D01*
X319850Y260500D02*X322550D01*
X326150Y256750D02*Y254500D01*
Y256750D02*X326900Y257500D01*
X328400D01*
X325400D02*X326150Y256750D01*
X332450Y257500D02*X333200Y256750D01*
X330950Y257500D02*X332450D01*
X330200Y256750D02*X330950Y257500D01*
X330200Y256750D02*Y255250D01*
X330950Y254500D01*
X333200Y257500D02*Y255250D01*
X333950Y254500D01*
X330950D02*X332450D01*
X333200Y255250D01*
X335750Y257500D02*Y255250D01*
X336500Y254500D01*
X337250D01*
X338000Y255250D01*
Y257500D02*Y255250D01*
X338750Y254500D01*
X339500D01*
X340250Y255250D01*
Y257500D02*Y255250D01*
G54D101*X342050Y259000D02*Y258850D01*
G54D100*Y256750D02*Y254500D01*
X344300Y256750D02*Y254500D01*
Y256750D02*X345050Y257500D01*
X345800D01*
X346550Y256750D01*
Y254500D01*
X343550Y257500D02*X344300Y256750D01*
X350600Y257500D02*X351350Y256750D01*
X349100Y257500D02*X350600D01*
X348350Y256750D02*X349100Y257500D01*
X348350Y256750D02*Y255250D01*
X349100Y254500D01*
X350600D01*
X351350Y255250D01*
X348350Y253000D02*X349100Y252250D01*
X350600D01*
X351350Y253000D01*
Y257500D02*Y253000D01*
M02*
