G04 start of page 6 for group -4063 idx -4063 *
G04 Title: (unknown), componentmask *
G04 Creator: pcb 1.99z *
G04 CreationDate: Fri 07 Mar 2014 08:36:24 PM GMT UTC *
G04 For: jpuls *
G04 Format: Gerber/RS-274X *
G04 PCB-Dimensions (mil): 5000.00 2020.00 *
G04 PCB-Coordinate-Origin: lower left *
%MOIN*%
%FSLAX25Y25*%
%LNTOPMASK*%
%ADD82R,0.0300X0.0300*%
%ADD81C,0.2920*%
%ADD80C,0.0847*%
%ADD79C,0.0780*%
%ADD78C,0.0660*%
%ADD77C,0.0960*%
%ADD76C,0.0860*%
%ADD75C,0.0610*%
%ADD74C,0.1060*%
%ADD73C,0.0001*%
%ADD72C,0.1044*%
%ADD71C,0.0946*%
G54D71*X17900Y158400D03*
Y138400D03*
Y118400D03*
X17914Y83061D03*
Y63061D03*
Y43061D03*
G54D72*X60000Y178000D03*
X148976D03*
G54D73*G36*
X196700Y177100D02*Y166500D01*
X207300D01*
Y177100D01*
X196700D01*
G37*
G54D74*X202000Y149900D03*
G54D75*X58723Y82764D03*
G54D73*G36*
X55673Y118814D02*Y112714D01*
X61773D01*
Y118814D01*
X55673D01*
G37*
G36*
Y106814D02*Y100714D01*
X61773D01*
Y106814D01*
X55673D01*
G37*
G54D75*X98723Y103764D03*
X108723Y115764D03*
G54D73*G36*
X55950Y129050D02*Y122950D01*
X62050D01*
Y129050D01*
X55950D01*
G37*
G54D75*X109000Y126000D03*
G54D74*X202000Y128000D03*
G54D73*G36*
X130950Y97050D02*Y90950D01*
X137050D01*
Y97050D01*
X130950D01*
G37*
G54D75*X134000Y144000D03*
G54D73*G36*
X147950Y97050D02*Y90950D01*
X154050D01*
Y97050D01*
X147950D01*
G37*
G54D75*X151000Y144000D03*
G54D73*G36*
X74700Y20800D02*Y11200D01*
X84300D01*
Y20800D01*
X74700D01*
G37*
G54D76*X119000Y16000D03*
G54D77*X69500D03*
X59500D03*
G54D73*G36*
X58939Y72547D02*Y66447D01*
X65039D01*
Y72547D01*
X58939D01*
G37*
G54D75*X81989Y69497D03*
G54D73*G36*
X95673Y85814D02*Y79714D01*
X101773D01*
Y85814D01*
X95673D01*
G37*
G54D78*X114000Y64000D03*
G54D73*G36*
X76423Y53064D02*Y46464D01*
X83023D01*
Y53064D01*
X76423D01*
G37*
G54D78*X69723Y49764D03*
G54D73*G36*
X134700Y20300D02*Y11700D01*
X143300D01*
Y20300D01*
X134700D01*
G37*
G36*
X140700Y37300D02*Y30700D01*
X147300D01*
Y37300D01*
X140700D01*
G37*
G54D78*X144000Y44000D03*
Y54000D03*
Y64000D03*
X114000Y54000D03*
Y44000D03*
Y34000D03*
G54D73*G36*
X174700Y38300D02*Y31700D01*
X181300D01*
Y38300D01*
X174700D01*
G37*
G54D78*X178000Y25000D03*
G54D73*G36*
X163100Y74900D02*Y67100D01*
X170900D01*
Y74900D01*
X163100D01*
G37*
G54D79*X167000Y81000D03*
Y91000D03*
G54D73*G36*
X196700Y103300D02*Y92700D01*
X207300D01*
Y103300D01*
X196700D01*
G37*
G54D74*X202000Y76100D03*
Y54200D03*
G54D71*X255723Y18764D03*
X275723D03*
X295723D03*
G54D74*X322723Y14764D03*
G54D73*G36*
X369923Y54564D02*Y44964D01*
X379523D01*
Y54564D01*
X369923D01*
G37*
G36*
X319423Y54064D02*Y45464D01*
X328023D01*
Y54064D01*
X319423D01*
G37*
G54D76*X343723Y49764D03*
G54D73*G36*
X361223Y20064D02*Y9464D01*
X371823D01*
Y20064D01*
X361223D01*
G37*
G54D74*X344623Y14764D03*
G54D73*G36*
X435223Y20064D02*Y9464D01*
X445823D01*
Y20064D01*
X435223D01*
G37*
G54D74*X418623Y14764D03*
X396723D03*
G54D77*X384723Y49764D03*
G54D73*G36*
X343673Y75814D02*Y69714D01*
X349773D01*
Y75814D01*
X343673D01*
G37*
G54D75*X326723Y72764D03*
G54D76*X489000Y35000D03*
Y55000D03*
G54D77*X394723Y49764D03*
G54D73*G36*
X422423Y54064D02*Y45464D01*
X431023D01*
Y54064D01*
X422423D01*
G37*
G36*
X374673Y95814D02*Y89714D01*
X380773D01*
Y95814D01*
X374673D01*
G37*
G54D76*X428723Y153764D03*
G54D73*G36*
X388923Y158564D02*Y148964D01*
X398523D01*
Y158564D01*
X388923D01*
G37*
G54D77*X383723Y153764D03*
X373723D03*
G54D75*X427723Y105764D03*
G54D71*X480723Y120764D03*
G54D73*G36*
X444423Y158064D02*Y149464D01*
X453023D01*
Y158064D01*
X444423D01*
G37*
G54D74*X344623Y187764D03*
X366523D03*
G54D73*G36*
X391423Y193064D02*Y182464D01*
X402023D01*
Y193064D01*
X391423D01*
G37*
G54D74*X418623Y187764D03*
X440523D03*
G54D71*X480723Y80764D03*
Y100764D03*
G54D76*X446723Y49764D03*
G54D75*X427723Y92764D03*
G54D76*X489000Y149000D03*
Y169000D03*
X324723Y153764D03*
G54D73*G36*
X319173Y131214D02*Y125114D01*
X325273D01*
Y131214D01*
X319173D01*
G37*
G36*
X304673Y82814D02*Y76714D01*
X310773D01*
Y82814D01*
X304673D01*
G37*
G54D75*X307723Y129764D03*
G54D73*G36*
X317423Y193064D02*Y182464D01*
X328023D01*
Y193064D01*
X317423D01*
G37*
G36*
X374673Y108814D02*Y102714D01*
X380773D01*
Y108814D01*
X374673D01*
G37*
G36*
X267673Y117814D02*Y111714D01*
X273773D01*
Y117814D01*
X267673D01*
G37*
G54D75*X250723Y114764D03*
G54D73*G36*
X247438Y67883D02*Y61783D01*
X253538D01*
Y67883D01*
X247438D01*
G37*
G54D75*X270488Y64833D03*
G54D73*G36*
X340423Y158064D02*Y149464D01*
X349023D01*
Y158064D01*
X340423D01*
G37*
G54D75*X342223Y128164D03*
G54D80*X260157Y137630D03*
X279843D03*
X270000Y177000D03*
G54D81*X17500Y184500D03*
Y17000D03*
X462500Y14500D03*
Y187000D03*
G54D82*X322473Y101764D02*X328973D01*
X322473Y96764D02*X328973D01*
X322473Y91764D02*X328973D01*
X322473Y86764D02*X328973D01*
X322473Y116764D02*X328973D01*
X322473Y111764D02*X328973D01*
X322473Y106764D02*X328973D01*
X342973Y86764D02*X349473D01*
X246911Y87076D02*X253411D01*
X246911Y82076D02*X253411D01*
X267411D02*X273911D01*
X267411Y87076D02*X273911D01*
X342973Y91764D02*X349473D01*
X246911Y92076D02*X253411D01*
X267411D02*X273911D01*
X342973Y96764D02*X349473D01*
X246911Y97076D02*X253411D01*
X267411D02*X273911D01*
X342973Y101764D02*X349473D01*
X342973Y106764D02*X349473D01*
X342973Y111764D02*X349473D01*
X342973Y116764D02*X349473D01*
M02*
