G04 start of page 9 for group -4015 idx -4015 *
G04 Title: (unknown), toppaste *
G04 Creator: pcb 1.99z *
G04 CreationDate: Fri 07 Mar 2014 08:36:24 PM GMT UTC *
G04 For: jpuls *
G04 Format: Gerber/RS-274X *
G04 PCB-Dimensions (mil): 5000.00 2020.00 *
G04 PCB-Coordinate-Origin: lower left *
%MOIN*%
%FSLAX25Y25*%
%LNTOPPASTE*%
%ADD97R,0.0200X0.0200*%
G54D97*X322473Y116764D02*X328973D01*
X322473Y111764D02*X328973D01*
X322473Y106764D02*X328973D01*
X322473Y101764D02*X328973D01*
X322473Y96764D02*X328973D01*
X322473Y91764D02*X328973D01*
X322473Y86764D02*X328973D01*
X342973D02*X349473D01*
X342973Y91764D02*X349473D01*
X342973Y96764D02*X349473D01*
X342973Y101764D02*X349473D01*
X342973Y106764D02*X349473D01*
X342973Y111764D02*X349473D01*
X342973Y116764D02*X349473D01*
X246911Y97076D02*X253411D01*
X246911Y92076D02*X253411D01*
X246911Y87076D02*X253411D01*
X246911Y82076D02*X253411D01*
X267411D02*X273911D01*
X267411Y87076D02*X273911D01*
X267411Y92076D02*X273911D01*
X267411Y97076D02*X273911D01*
M02*
