G04 start of page 8 for group -4079 idx -4079 *
G04 Title: (unknown), topsilk *
G04 Creator: pcb 1.99z *
G04 CreationDate: Fri 07 Mar 2014 08:36:24 PM GMT UTC *
G04 For: jpuls *
G04 Format: Gerber/RS-274X *
G04 PCB-Dimensions (mil): 5000.00 2020.00 *
G04 PCB-Coordinate-Origin: lower left *
%MOIN*%
%FSLAX25Y25*%
%LNTOPSILK*%
%ADD96C,0.0200*%
%ADD95C,0.0039*%
%ADD94C,0.0100*%
G54D94*X85500Y95500D02*Y89500D01*
X72000Y86000D02*Y79500D01*
X85000Y107000D02*Y101000D01*
X44252Y201622D02*X164331D01*
Y154378D01*
X44252D01*
Y201622D01*
G54D95*X17900Y168242D02*X35616D01*
Y108400D01*
X183D02*X35616D01*
X183Y168242D02*Y108400D01*
Y168242D02*X18294D01*
G54D94*X58723Y103764D02*X68723D01*
X88723D02*X98723D01*
X68723Y107064D02*X88723D01*
Y100464D01*
X68723D02*X88723D01*
X68723Y107064D02*Y100464D01*
X58723Y115764D02*X71223D01*
X96223D02*X108723D01*
X71223Y119864D02*X96223D01*
Y111664D01*
X71223D02*X96223D01*
X71223Y119864D02*Y111664D01*
X149000Y69000D02*Y29000D01*
X109000Y69000D02*X149000D01*
X109000D02*Y29000D01*
X134000D02*X149000D01*
X109000D02*X124000D01*
X134000D02*G75*G03X124000Y29000I-5000J0D01*G01*
X134000Y106500D02*Y94000D01*
Y144000D02*Y131500D01*
X129900D02*Y106500D01*
Y131500D02*X138100D01*
Y106500D01*
X129900D02*X138100D01*
X151000D02*Y94000D01*
Y144000D02*Y131500D01*
X146900D02*Y106500D01*
Y131500D02*X155100D01*
Y106500D01*
X146900D02*X155100D01*
X174000Y88000D02*Y74000D01*
X174071Y88071D02*G75*G03X174071Y73929I-7071J-7071D01*G01*
G54D96*X194000Y107600D02*X215000D01*
X194000D02*Y44600D01*
X215000D01*
Y107600D02*Y44600D01*
G54D94*X210000Y107600D02*Y44600D01*
Y83600D02*X215000D01*
X210000Y68600D02*X215000D01*
G54D96*X194000Y181400D02*X215000D01*
X194000D02*Y118400D01*
X215000D01*
Y181400D02*Y118400D01*
G54D94*X210000Y181400D02*Y118400D01*
Y157400D02*X215000D01*
X210000Y142400D02*X215000D01*
X59000Y126000D02*X71500D01*
X96500D02*X109000D01*
X71500Y130100D02*X96500D01*
Y121900D01*
X71500D01*
Y130100D01*
G54D95*X245881Y18764D02*Y36480D01*
X305723D01*
Y1047D01*
X245881D01*
Y19158D01*
G54D96*X376123Y22764D02*Y1764D01*
X313123Y22764D02*X376123D01*
X313123D02*Y1764D01*
X376123D01*
G54D94*X313123Y6764D02*X376123D01*
X352123D02*Y1764D01*
X337123Y6764D02*Y1764D01*
G54D96*X450123Y22764D02*Y1764D01*
X387123Y22764D02*X450123D01*
X387123D02*Y1764D01*
X450123D01*
G54D94*X387123Y6764D02*X450123D01*
X426123D02*Y1764D01*
X411123Y6764D02*Y1764D01*
G54D96*X364723Y61764D02*X404723D01*
Y43764D01*
X364723D02*X404723D01*
X364723Y61764D02*Y43764D01*
Y61764D02*X404723D01*
Y55764D01*
X364723D02*X404723D01*
X364723Y61764D02*Y55764D01*
G54D94*X377723Y61764D02*Y55764D01*
X391723Y61764D02*Y55764D01*
G54D96*X416723Y59764D02*Y41764D01*
X456723D01*
Y59764D01*
X416723D01*
G54D94*Y54764D02*X456723D01*
X429223Y59764D02*Y54764D01*
X444223Y59764D02*Y54764D01*
X377723Y92764D02*X390223D01*
X415223D02*X427723D01*
X390223Y96864D02*X415223D01*
Y88664D01*
X390223D01*
Y96864D01*
X377723Y105764D02*X390223D01*
X415223D02*X427723D01*
X390223Y109864D02*X415223D01*
Y101664D01*
X390223D01*
Y109864D01*
G54D95*X463007Y70922D02*X480723D01*
X463007Y130764D02*Y70922D01*
Y130764D02*X498440D01*
Y70922D01*
X480329D02*X498440D01*
G54D96*X313723Y59764D02*Y41764D01*
X353723D01*
Y59764D01*
X313723D01*
G54D94*Y54764D02*X353723D01*
X326223Y59764D02*Y54764D01*
X341223Y59764D02*Y54764D01*
G54D96*X481000Y65000D02*X499000D01*
X481000D02*Y25000D01*
X499000D01*
Y65000D02*Y25000D01*
G54D94*X494000Y65000D02*Y25000D01*
Y52500D02*X499000D01*
X494000Y37500D02*X499000D01*
G54D96*X458723Y161764D02*Y143764D01*
X418723Y161764D02*X458723D01*
X418723D02*Y143764D01*
X458723D01*
G54D94*X418723Y148764D02*X458723D01*
X446223D02*Y143764D01*
X431223Y148764D02*Y143764D01*
G54D96*X354723Y161764D02*Y143764D01*
X314723Y161764D02*X354723D01*
X314723D02*Y143764D01*
X354723D01*
G54D94*X314723Y148764D02*X354723D01*
X342223D02*Y143764D01*
X327223Y148764D02*Y143764D01*
G54D96*X363723Y141764D02*X403723D01*
X363723Y159764D02*Y141764D01*
Y159764D02*X403723D01*
Y141764D01*
X363723D02*X403723D01*
X363723Y147764D02*Y141764D01*
Y147764D02*X403723D01*
Y141764D01*
G54D94*X390723Y147764D02*Y141764D01*
X376723Y147764D02*Y141764D01*
G54D96*X313123Y200764D02*Y179764D01*
X376123D01*
Y200764D02*Y179764D01*
X313123Y200764D02*X376123D01*
G54D94*X313123Y195764D02*X376123D01*
X337123Y200764D02*Y195764D01*
X352123Y200764D02*Y195764D01*
G54D96*X387123Y200764D02*Y179764D01*
X450123D01*
Y200764D02*Y179764D01*
X387123Y200764D02*X450123D01*
G54D94*X387123Y195764D02*X450123D01*
X411123Y200764D02*Y195764D01*
X426123Y200764D02*Y195764D01*
X341723Y72764D02*X346723D01*
X326723D02*X331723D01*
Y71164D02*X341723D01*
X331723Y74364D02*Y71164D01*
Y74364D02*X341723D01*
Y71164D01*
X320473Y118764D02*Y84764D01*
X351473D01*
Y118764D01*
X320473D02*X333473D01*
X351473D02*X338473D01*
X333473D02*G75*G03X338473Y118764I2500J0D01*G01*
X322223Y128164D02*X327223D01*
X337223D02*X342223D01*
X327223Y129764D02*X337223D01*
Y126564D01*
X327223D02*X337223D01*
X327223Y129764D02*Y126564D01*
X307723Y92264D02*Y79764D01*
Y129764D02*Y117264D01*
X303623D02*Y92264D01*
Y117264D02*X311823D01*
Y92264D01*
X303623D02*X311823D01*
X265723Y114764D02*X270723D01*
X250723D02*X255723D01*
Y113164D02*X265723D01*
X255723Y116364D02*Y113164D01*
Y116364D02*X265723D01*
Y113164D01*
X250488Y64833D02*X255488D01*
X265488D02*X270488D01*
X255488Y66433D02*X265488D01*
Y63233D01*
X255488D01*
Y66433D01*
X244911Y99076D02*Y80076D01*
X275911D01*
Y99076D01*
X244911D02*X257911D01*
X275911D02*X262911D01*
X257911D02*G75*G03X262911Y99076I2500J0D01*G01*
X252283Y143535D02*Y173850D01*
X287717Y143535D02*Y173850D01*
G54D96*X481000Y179000D02*X499000D01*
X481000D02*Y139000D01*
X499000D01*
Y179000D02*Y139000D01*
G54D94*X494000Y179000D02*Y139000D01*
Y166500D02*X499000D01*
X494000Y151500D02*X499000D01*
G54D96*X149000Y24000D02*Y6000D01*
X109000Y24000D02*X149000D01*
X109000D02*Y6000D01*
X149000D01*
G54D94*X109000Y11000D02*X149000D01*
X136500D02*Y6000D01*
X121500Y11000D02*Y6000D01*
X178000Y46000D02*Y42000D01*
X176000Y44000D02*X180000D01*
X178000Y18000D02*Y14000D01*
Y40000D02*G75*G03X178000Y40000I0J-10000D01*G01*
X61989Y69497D02*X66989D01*
X76989D02*X81989D01*
X66989Y71097D02*X76989D01*
Y67897D01*
X66989D02*X76989D01*
X66989Y71097D02*Y67897D01*
G54D95*X17914Y92903D02*X35630D01*
Y33061D01*
X197D02*X35630D01*
X197Y92903D02*Y33061D01*
Y92903D02*X18308D01*
G54D96*X49500Y4000D02*X89500D01*
X49500Y22000D02*Y4000D01*
Y22000D02*X89500D01*
Y4000D01*
X49500D02*X89500D01*
X49500Y10000D02*Y4000D01*
Y10000D02*X89500D01*
Y4000D01*
G54D94*X76500Y10000D02*Y4000D01*
X62500Y10000D02*Y4000D01*
X88723Y82764D02*X98723D01*
X58723D02*X68723D01*
Y79464D02*X88723D01*
X68723Y86064D02*Y79464D01*
Y86064D02*X88723D01*
Y79464D01*
X86723Y49764D02*X90723D01*
X88723Y51764D02*Y47764D01*
X58723Y49764D02*X62723D01*
X84723D02*G75*G03X84723Y49764I-10000J0D01*G01*
X168126Y182220D02*Y178220D01*
Y182220D02*X170126D01*
X168126Y180420D02*X169626D01*
X171326Y181420D02*X172126Y182220D01*
Y178220D01*
X171326D02*X172826D01*
X174026Y178720D02*X174526Y178220D01*
X174026Y181720D02*Y178720D01*
Y181720D02*X174526Y182220D01*
X175526D01*
X176026Y181720D01*
Y178720D01*
X175526Y178220D02*X176026Y178720D01*
X174526Y178220D02*X175526D01*
X174026Y179220D02*X176026Y181220D01*
X177226Y181720D02*X177726Y182220D01*
X179226D01*
X179726Y181720D01*
Y180720D01*
X177226Y178220D02*X179726Y180720D01*
X177226Y178220D02*X179726D01*
X175500Y90000D02*X178500D01*
X179000Y89500D01*
Y88500D01*
X178500Y88000D01*
X176000D02*X178500D01*
X175000Y89000D02*X176000Y88000D01*
X175000Y89500D02*Y89000D01*
X175500Y90000D02*X175000Y89500D01*
X176500Y89000D02*X175000Y88000D01*
X178200Y86800D02*X179000Y86000D01*
X175000D02*X179000D01*
X175000Y86800D02*Y85300D01*
X175500Y84100D02*X175000Y83600D01*
X175500Y84100D02*X178500D01*
X179000Y83600D01*
Y82600D01*
X178500Y82100D01*
X175500D02*X178500D01*
X175000Y82600D02*X175500Y82100D01*
X175000Y83600D02*Y82600D01*
X176000Y84100D02*X178000Y82100D01*
X178500Y80900D02*X179000Y80400D01*
Y79400D01*
X178500Y78900D01*
X175000Y79400D02*X175500Y78900D01*
X175000Y80400D02*Y79400D01*
X175500Y80900D02*X175000Y80400D01*
X177200D02*Y79400D01*
X177700Y78900D02*X178500D01*
X175500D02*X176700D01*
X177200Y79400D01*
X177700Y78900D02*X177200Y79400D01*
X90689Y67897D02*X91989D01*
X89989Y68597D02*X90689Y67897D01*
X89989Y71197D02*Y68597D01*
Y71197D02*X90689Y71897D01*
X91989D01*
X93189Y71097D02*X93989Y71897D01*
Y67897D01*
X93189D02*X94689D01*
X95889Y68397D02*X96389Y67897D01*
X95889Y71397D02*Y68397D01*
Y71397D02*X96389Y71897D01*
X97389D01*
X97889Y71397D01*
Y68397D01*
X97389Y67897D02*X97889Y68397D01*
X96389Y67897D02*X97389D01*
X95889Y68897D02*X97889Y70897D01*
X99089Y71397D02*X99589Y71897D01*
X101089D01*
X101589Y71397D01*
Y70397D01*
X99089Y67897D02*X101589Y70397D01*
X99089Y67897D02*X101589D01*
X93054Y19472D02*Y15972D01*
X93554Y15472D01*
X94554D01*
X95054Y15972D01*
Y19472D02*Y15972D01*
X96254Y18672D02*X97054Y19472D01*
Y15472D01*
X96254D02*X97754D01*
X98954Y15972D02*X99454Y15472D01*
X98954Y18972D02*Y15972D01*
Y18972D02*X99454Y19472D01*
X100454D01*
X100954Y18972D01*
Y15972D01*
X100454Y15472D02*X100954Y15972D01*
X99454Y15472D02*X100454D01*
X98954Y16472D02*X100954Y18472D01*
X102154Y18972D02*X102654Y19472D01*
X104154D01*
X104654Y18972D01*
Y17972D01*
X102154Y15472D02*X104654Y17972D01*
X102154Y15472D02*X104654D01*
X108121Y84750D02*Y80750D01*
X109421Y84750D02*X110121Y84050D01*
Y81450D01*
X109421Y80750D02*X110121Y81450D01*
X107621Y80750D02*X109421D01*
X107621Y84750D02*X109421D01*
X111321Y83950D02*X112121Y84750D01*
Y80750D01*
X111321D02*X112821D01*
X114021Y81250D02*X114521Y80750D01*
X114021Y84250D02*Y81250D01*
Y84250D02*X114521Y84750D01*
X115521D01*
X116021Y84250D01*
Y81250D01*
X115521Y80750D02*X116021Y81250D01*
X114521Y80750D02*X115521D01*
X114021Y81750D02*X116021Y83750D01*
X117221Y83950D02*X118021Y84750D01*
Y80750D01*
X117221D02*X118721D01*
X105723Y106464D02*Y102464D01*
X107023Y106464D02*X107723Y105764D01*
Y103164D01*
X107023Y102464D02*X107723Y103164D01*
X105223Y102464D02*X107023D01*
X105223Y106464D02*X107023D01*
X108923Y105664D02*X109723Y106464D01*
Y102464D01*
X108923D02*X110423D01*
X111623Y102964D02*X112123Y102464D01*
X111623Y105964D02*Y102964D01*
Y105964D02*X112123Y106464D01*
X113123D01*
X113623Y105964D01*
Y102964D01*
X113123Y102464D02*X113623Y102964D01*
X112123Y102464D02*X113123D01*
X111623Y103464D02*X113623Y105464D01*
X114823Y105964D02*X115323Y106464D01*
X116823D01*
X117323Y105964D01*
Y104964D01*
X114823Y102464D02*X117323Y104964D01*
X114823Y102464D02*X117323D01*
X94000Y37000D02*Y33500D01*
X94500Y33000D01*
X95500D01*
X96000Y33500D01*
Y37000D02*Y33500D01*
X97200Y36200D02*X98000Y37000D01*
Y33000D01*
X97200D02*X98700D01*
X99900Y33500D02*X100400Y33000D01*
X99900Y36500D02*Y33500D01*
Y36500D02*X100400Y37000D01*
X101400D01*
X101900Y36500D01*
Y33500D01*
X101400Y33000D02*X101900Y33500D01*
X100400Y33000D02*X101400D01*
X99900Y34000D02*X101900Y36000D01*
X103100Y34500D02*X105100Y37000D01*
X103100Y34500D02*X105600D01*
X105100Y37000D02*Y33000D01*
X87977Y55736D02*X89277D01*
X87277Y56436D02*X87977Y55736D01*
X87277Y59036D02*Y56436D01*
Y59036D02*X87977Y59736D01*
X89277D01*
X90477Y58936D02*X91277Y59736D01*
Y55736D01*
X90477D02*X91977D01*
X93177Y56236D02*X93677Y55736D01*
X93177Y59236D02*Y56236D01*
Y59236D02*X93677Y59736D01*
X94677D01*
X95177Y59236D01*
Y56236D01*
X94677Y55736D02*X95177Y56236D01*
X93677Y55736D02*X94677D01*
X93177Y56736D02*X95177Y58736D01*
X96377Y56236D02*X96877Y55736D01*
X96377Y57036D02*Y56236D01*
Y57036D02*X97077Y57736D01*
X97677D01*
X98377Y57036D01*
Y56236D01*
X97877Y55736D02*X98377Y56236D01*
X96877Y55736D02*X97877D01*
X96377Y58436D02*X97077Y57736D01*
X96377Y59236D02*Y58436D01*
Y59236D02*X96877Y59736D01*
X97877D01*
X98377Y59236D01*
Y58436D01*
X97677Y57736D02*X98377Y58436D01*
X37952Y149816D02*Y148516D01*
X38652Y150516D02*X37952Y149816D01*
X38652Y150516D02*X41252D01*
X41952Y149816D01*
Y148516D01*
X38452Y147316D02*X41452D01*
X41952Y146816D01*
Y145816D01*
X41452Y145316D01*
X38452D02*X41452D01*
X37952Y145816D02*X38452Y145316D01*
X37952Y146816D02*Y145816D01*
X38452Y147316D02*X37952Y146816D01*
Y144116D02*X41952D01*
X37952Y141616D01*
X41952D01*
X37952Y140416D02*X41952D01*
X37952Y137916D01*
X41952D01*
X41152Y136716D02*X41952Y135916D01*
X37952D02*X41952D01*
X37952Y136716D02*Y135216D01*
X38452Y134016D02*X37952Y133516D01*
X38452Y134016D02*X41452D01*
X41952Y133516D01*
Y132516D01*
X41452Y132016D01*
X38452D02*X41452D01*
X37952Y132516D02*X38452Y132016D01*
X37952Y133516D02*Y132516D01*
X38952Y134016D02*X40952Y132016D01*
X41152Y130816D02*X41952Y130016D01*
X37952D02*X41952D01*
X37952Y130816D02*Y129316D01*
X37966Y74477D02*Y73177D01*
X38666Y75177D02*X37966Y74477D01*
X38666Y75177D02*X41266D01*
X41966Y74477D01*
Y73177D01*
X38466Y71977D02*X41466D01*
X41966Y71477D01*
Y70477D01*
X41466Y69977D01*
X38466D02*X41466D01*
X37966Y70477D02*X38466Y69977D01*
X37966Y71477D02*Y70477D01*
X38466Y71977D02*X37966Y71477D01*
Y68777D02*X41966D01*
X37966Y66277D01*
X41966D01*
X37966Y65077D02*X41966D01*
X37966Y62577D01*
X41966D01*
X41166Y61377D02*X41966Y60577D01*
X37966D02*X41966D01*
X37966Y61377D02*Y59877D01*
X38466Y58677D02*X37966Y58177D01*
X38466Y58677D02*X41466D01*
X41966Y58177D01*
Y57177D01*
X41466Y56677D01*
X38466D02*X41466D01*
X37966Y57177D02*X38466Y56677D01*
X37966Y58177D02*Y57177D01*
X38966Y58677D02*X40966Y56677D01*
X41466Y55477D02*X41966Y54977D01*
Y53477D01*
X41466Y52977D01*
X40466D02*X41466D01*
X37966Y55477D02*X40466Y52977D01*
X37966Y55477D02*Y52977D01*
X42723Y117664D02*X44723D01*
X45223Y117164D01*
Y116164D01*
X44723Y115664D02*X45223Y116164D01*
X43223Y115664D02*X44723D01*
X43223Y117664D02*Y113664D01*
X44023Y115664D02*X45223Y113664D01*
X46423Y116864D02*X47223Y117664D01*
Y113664D01*
X46423D02*X47923D01*
X49123Y114164D02*X49623Y113664D01*
X49123Y117164D02*Y114164D01*
Y117164D02*X49623Y117664D01*
X50623D01*
X51123Y117164D01*
Y114164D01*
X50623Y113664D02*X51123Y114164D01*
X49623Y113664D02*X50623D01*
X49123Y114664D02*X51123Y116664D01*
X52323Y117164D02*X52823Y117664D01*
X53823D01*
X54323Y117164D01*
X53823Y113664D02*X54323Y114164D01*
X52823Y113664D02*X53823D01*
X52323Y114164D02*X52823Y113664D01*
Y115864D02*X53823D01*
X54323Y117164D02*Y116364D01*
Y115364D02*Y114164D01*
Y115364D02*X53823Y115864D01*
X54323Y116364D02*X53823Y115864D01*
X152459Y19487D02*X154459D01*
X154959Y18987D01*
Y17987D01*
X154459Y17487D02*X154959Y17987D01*
X152959Y17487D02*X154459D01*
X152959Y19487D02*Y15487D01*
X153759Y17487D02*X154959Y15487D01*
X156159Y18687D02*X156959Y19487D01*
Y15487D01*
X156159D02*X157659D01*
X158859Y15987D02*X159359Y15487D01*
X158859Y18987D02*Y15987D01*
Y18987D02*X159359Y19487D01*
X160359D01*
X160859Y18987D01*
Y15987D01*
X160359Y15487D02*X160859Y15987D01*
X159359Y15487D02*X160359D01*
X158859Y16487D02*X160859Y18487D01*
X162059Y18987D02*X162559Y19487D01*
X164059D01*
X164559Y18987D01*
Y17987D01*
X162059Y15487D02*X164559Y17987D01*
X162059Y15487D02*X164559D01*
X183000Y19300D02*Y18000D01*
X183700Y20000D02*X183000Y19300D01*
X183700Y20000D02*X186300D01*
X187000Y19300D01*
Y18000D01*
X186200Y16800D02*X187000Y16000D01*
X183000D02*X187000D01*
X183000Y16800D02*Y15300D01*
X183500Y14100D02*X183000Y13600D01*
X183500Y14100D02*X186500D01*
X187000Y13600D01*
Y12600D01*
X186500Y12100D01*
X183500D02*X186500D01*
X183000Y12600D02*X183500Y12100D01*
X183000Y13600D02*Y12600D01*
X184000Y14100D02*X186000Y12100D01*
X183000Y10400D02*X185000Y8900D01*
X186500D01*
X187000Y9400D02*X186500Y8900D01*
X187000Y10400D02*Y9400D01*
X186500Y10900D02*X187000Y10400D01*
X185500Y10900D02*X186500D01*
X185500D02*X185000Y10400D01*
Y8900D01*
X198000Y41900D02*Y38900D01*
Y41900D02*X198500Y42400D01*
X199500D01*
X200000Y41900D01*
Y39400D01*
X199000Y38400D02*X200000Y39400D01*
X198500Y38400D02*X199000D01*
X198000Y38900D02*X198500Y38400D01*
X199000Y39900D02*X200000Y38400D01*
X201200Y41600D02*X202000Y42400D01*
Y38400D01*
X201200D02*X202700D01*
X203900Y38900D02*X204400Y38400D01*
X203900Y41900D02*Y38900D01*
Y41900D02*X204400Y42400D01*
X205400D01*
X205900Y41900D01*
Y38900D01*
X205400Y38400D02*X205900Y38900D01*
X204400Y38400D02*X205400D01*
X203900Y39400D02*X205900Y41400D01*
X207100Y41900D02*X207600Y42400D01*
X209100D01*
X209600Y41900D01*
Y40900D01*
X207100Y38400D02*X209600Y40900D01*
X207100Y38400D02*X209600D01*
X42500Y127900D02*X44500D01*
X45000Y127400D01*
Y126400D01*
X44500Y125900D02*X45000Y126400D01*
X43000Y125900D02*X44500D01*
X43000Y127900D02*Y123900D01*
X43800Y125900D02*X45000Y123900D01*
X46200Y127100D02*X47000Y127900D01*
Y123900D01*
X46200D02*X47700D01*
X48900Y124400D02*X49400Y123900D01*
X48900Y127400D02*Y124400D01*
Y127400D02*X49400Y127900D01*
X50400D01*
X50900Y127400D01*
Y124400D01*
X50400Y123900D02*X50900Y124400D01*
X49400Y123900D02*X50400D01*
X48900Y124900D02*X50900Y126900D01*
X52600Y123900D02*X54600Y127900D01*
X52100D02*X54600D01*
X140100Y117500D02*Y115500D01*
Y117500D02*X140600Y118000D01*
X141600D01*
X142100Y117500D02*X141600Y118000D01*
X142100Y117500D02*Y116000D01*
X140100D02*X144100D01*
X142100Y116800D02*X144100Y118000D01*
X140900Y119200D02*X140100Y120000D01*
X144100D01*
Y120700D02*Y119200D01*
X143600Y121900D02*X144100Y122400D01*
X140600Y121900D02*X143600D01*
X140600D02*X140100Y122400D01*
Y123400D02*Y122400D01*
Y123400D02*X140600Y123900D01*
X143600D01*
X144100Y123400D02*X143600Y123900D01*
X144100Y123400D02*Y122400D01*
X143100Y121900D02*X141100Y123900D01*
X140100Y126600D02*X140600Y127100D01*
X140100Y126600D02*Y125600D01*
X140600Y125100D02*X140100Y125600D01*
X140600Y125100D02*X143600D01*
X144100Y125600D01*
X141900Y126600D02*X142400Y127100D01*
X141900Y126600D02*Y125100D01*
X144100Y126600D02*Y125600D01*
Y126600D02*X143600Y127100D01*
X142400D02*X143600D01*
X157100Y116500D02*Y114500D01*
Y116500D02*X157600Y117000D01*
X158600D01*
X159100Y116500D02*X158600Y117000D01*
X159100Y116500D02*Y115000D01*
X157100D02*X161100D01*
X159100Y115800D02*X161100Y117000D01*
X157900Y118200D02*X157100Y119000D01*
X161100D01*
Y119700D02*Y118200D01*
X160600Y120900D02*X161100Y121400D01*
X157600Y120900D02*X160600D01*
X157600D02*X157100Y121400D01*
Y122400D02*Y121400D01*
Y122400D02*X157600Y122900D01*
X160600D01*
X161100Y122400D02*X160600Y122900D01*
X161100Y122400D02*Y121400D01*
X160100Y120900D02*X158100Y122900D01*
X157100Y126100D02*Y124100D01*
X159100D01*
X158600Y124600D01*
Y125600D02*Y124600D01*
Y125600D02*X159100Y126100D01*
X160600D01*
X161100Y125600D02*X160600Y126100D01*
X161100Y125600D02*Y124600D01*
X160600Y124100D02*X161100Y124600D01*
X198000Y116100D02*Y113100D01*
Y116100D02*X198500Y116600D01*
X199500D01*
X200000Y116100D01*
Y113600D01*
X199000Y112600D02*X200000Y113600D01*
X198500Y112600D02*X199000D01*
X198000Y113100D02*X198500Y112600D01*
X199000Y114100D02*X200000Y112600D01*
X201200Y115800D02*X202000Y116600D01*
Y112600D01*
X201200D02*X202700D01*
X203900Y113100D02*X204400Y112600D01*
X203900Y116100D02*Y113100D01*
Y116100D02*X204400Y116600D01*
X205400D01*
X205900Y116100D01*
Y113100D01*
X205400Y112600D02*X205900Y113100D01*
X204400Y112600D02*X205400D01*
X203900Y113600D02*X205900Y115600D01*
X207100Y115800D02*X207900Y116600D01*
Y112600D01*
X207100D02*X208600D01*
X265267Y39002D02*X266567D01*
X264567Y39702D02*X265267Y39002D01*
X264567Y42302D02*Y39702D01*
Y42302D02*X265267Y43002D01*
X266567D01*
X267767Y42502D02*Y39502D01*
Y42502D02*X268267Y43002D01*
X269267D01*
X269767Y42502D01*
Y39502D01*
X269267Y39002D02*X269767Y39502D01*
X268267Y39002D02*X269267D01*
X267767Y39502D02*X268267Y39002D01*
X270967Y43002D02*Y39002D01*
Y43002D02*X273467Y39002D01*
Y43002D02*Y39002D01*
X274667Y43002D02*Y39002D01*
Y43002D02*X277167Y39002D01*
Y43002D02*Y39002D01*
X278367Y42202D02*X279167Y43002D01*
Y39002D01*
X278367D02*X279867D01*
X281067Y39502D02*X281567Y39002D01*
X281067Y42502D02*Y39502D01*
Y42502D02*X281567Y43002D01*
X282567D01*
X283067Y42502D01*
Y39502D01*
X282567Y39002D02*X283067Y39502D01*
X281567Y39002D02*X282567D01*
X281067Y40002D02*X283067Y42002D01*
X284267Y42502D02*X284767Y43002D01*
X285767D01*
X286267Y42502D01*
X285767Y39002D02*X286267Y39502D01*
X284767Y39002D02*X285767D01*
X284267Y39502D02*X284767Y39002D01*
Y41202D02*X285767D01*
X286267Y42502D02*Y41702D01*
Y40702D02*Y39502D01*
Y40702D02*X285767Y41202D01*
X286267Y41702D02*X285767Y41202D01*
X339723Y30864D02*Y27864D01*
Y30864D02*X340223Y31364D01*
X341223D01*
X341723Y30864D01*
Y28364D01*
X340723Y27364D02*X341723Y28364D01*
X340223Y27364D02*X340723D01*
X339723Y27864D02*X340223Y27364D01*
X340723Y28864D02*X341723Y27364D01*
X342923Y30864D02*X343423Y31364D01*
X344923D01*
X345423Y30864D01*
Y29864D01*
X342923Y27364D02*X345423Y29864D01*
X342923Y27364D02*X345423D01*
X346623Y27864D02*X347123Y27364D01*
X346623Y30864D02*Y27864D01*
Y30864D02*X347123Y31364D01*
X348123D01*
X348623Y30864D01*
Y27864D01*
X348123Y27364D02*X348623Y27864D01*
X347123Y27364D02*X348123D01*
X346623Y28364D02*X348623Y30364D01*
X349823Y28864D02*X351823Y31364D01*
X349823Y28864D02*X352323D01*
X351823Y31364D02*Y27364D01*
X413723Y30864D02*Y27864D01*
Y30864D02*X414223Y31364D01*
X415223D01*
X415723Y30864D01*
Y28364D01*
X414723Y27364D02*X415723Y28364D01*
X414223Y27364D02*X414723D01*
X413723Y27864D02*X414223Y27364D01*
X414723Y28864D02*X415723Y27364D01*
X416923Y30864D02*X417423Y31364D01*
X418923D01*
X419423Y30864D01*
Y29864D01*
X416923Y27364D02*X419423Y29864D01*
X416923Y27364D02*X419423D01*
X420623Y27864D02*X421123Y27364D01*
X420623Y30864D02*Y27864D01*
Y30864D02*X421123Y31364D01*
X422123D01*
X422623Y30864D01*
Y27864D01*
X422123Y27364D02*X422623Y27864D01*
X421123Y27364D02*X422123D01*
X420623Y28364D02*X422623Y30364D01*
X423823Y30564D02*X424623Y31364D01*
Y27364D01*
X423823D02*X425323D01*
X315236Y38723D02*X317236D01*
X317736Y38223D01*
Y37223D01*
X317236Y36723D02*X317736Y37223D01*
X315736Y36723D02*X317236D01*
X315736Y38723D02*Y34723D01*
X316536Y36723D02*X317736Y34723D01*
X318936Y38223D02*X319436Y38723D01*
X320936D01*
X321436Y38223D01*
Y37223D01*
X318936Y34723D02*X321436Y37223D01*
X318936Y34723D02*X321436D01*
X322636Y35223D02*X323136Y34723D01*
X322636Y38223D02*Y35223D01*
Y38223D02*X323136Y38723D01*
X324136D01*
X324636Y38223D01*
Y35223D01*
X324136Y34723D02*X324636Y35223D01*
X323136Y34723D02*X324136D01*
X322636Y35723D02*X324636Y37723D01*
X325836Y35223D02*X326336Y34723D01*
X325836Y36023D02*Y35223D01*
Y36023D02*X326536Y36723D01*
X327136D01*
X327836Y36023D01*
Y35223D01*
X327336Y34723D02*X327836Y35223D01*
X326336Y34723D02*X327336D01*
X325836Y37423D02*X326536Y36723D01*
X325836Y38223D02*Y37423D01*
Y38223D02*X326336Y38723D01*
X327336D01*
X327836Y38223D01*
Y37423D01*
X327136Y36723D02*X327836Y37423D01*
X465500Y46000D02*Y42000D01*
X466800Y46000D02*X467500Y45300D01*
Y42700D01*
X466800Y42000D02*X467500Y42700D01*
X465000Y42000D02*X466800D01*
X465000Y46000D02*X466800D01*
X468700Y45500D02*X469200Y46000D01*
X470700D01*
X471200Y45500D01*
Y44500D01*
X468700Y42000D02*X471200Y44500D01*
X468700Y42000D02*X471200D01*
X472400Y42500D02*X472900Y42000D01*
X472400Y45500D02*Y42500D01*
Y45500D02*X472900Y46000D01*
X473900D01*
X474400Y45500D01*
Y42500D01*
X473900Y42000D02*X474400Y42500D01*
X472900Y42000D02*X473900D01*
X472400Y43000D02*X474400Y45000D01*
X475600Y45500D02*X476100Y46000D01*
X477600D01*
X478100Y45500D01*
Y44500D01*
X475600Y42000D02*X478100Y44500D01*
X475600Y42000D02*X478100D01*
X364723Y67264D02*Y64264D01*
Y67264D02*X365223Y67764D01*
X366223D01*
X366723Y67264D01*
Y64764D01*
X365723Y63764D02*X366723Y64764D01*
X365223Y63764D02*X365723D01*
X364723Y64264D02*X365223Y63764D01*
X365723Y65264D02*X366723Y63764D01*
X367923Y67264D02*X368423Y67764D01*
X369923D01*
X370423Y67264D01*
Y66264D01*
X367923Y63764D02*X370423Y66264D01*
X367923Y63764D02*X370423D01*
X371623Y64264D02*X372123Y63764D01*
X371623Y67264D02*Y64264D01*
Y67264D02*X372123Y67764D01*
X373123D01*
X373623Y67264D01*
Y64264D01*
X373123Y63764D02*X373623Y64264D01*
X372123Y63764D02*X373123D01*
X371623Y64764D02*X373623Y66764D01*
X376323Y67764D02*X376823Y67264D01*
X375323Y67764D02*X376323D01*
X374823Y67264D02*X375323Y67764D01*
X374823Y67264D02*Y64264D01*
X375323Y63764D01*
X376323Y65964D02*X376823Y65464D01*
X374823Y65964D02*X376323D01*
X375323Y63764D02*X376323D01*
X376823Y64264D01*
Y65464D02*Y64264D01*
X442736Y67223D02*X444736D01*
X445236Y66723D01*
Y65723D01*
X444736Y65223D02*X445236Y65723D01*
X443236Y65223D02*X444736D01*
X443236Y67223D02*Y63223D01*
X444036Y65223D02*X445236Y63223D01*
X446436Y66723D02*X446936Y67223D01*
X448436D01*
X448936Y66723D01*
Y65723D01*
X446436Y63223D02*X448936Y65723D01*
X446436Y63223D02*X448936D01*
X450136Y63723D02*X450636Y63223D01*
X450136Y66723D02*Y63723D01*
Y66723D02*X450636Y67223D01*
X451636D01*
X452136Y66723D01*
Y63723D01*
X451636Y63223D02*X452136Y63723D01*
X450636Y63223D02*X451636D01*
X450136Y64223D02*X452136Y66223D01*
X453336Y67223D02*X455336D01*
X453336D02*Y65223D01*
X453836Y65723D01*
X454836D01*
X455336Y65223D01*
Y63723D01*
X454836Y63223D02*X455336Y63723D01*
X453836Y63223D02*X454836D01*
X453336Y63723D02*X453836Y63223D01*
X257188Y57233D02*X258488D01*
X256488Y57933D02*X257188Y57233D01*
X256488Y60533D02*Y57933D01*
Y60533D02*X257188Y61233D01*
X258488D01*
X259688Y60433D02*X260488Y61233D01*
Y57233D01*
X259688D02*X261188D01*
X262388Y57733D02*X262888Y57233D01*
X262388Y60733D02*Y57733D01*
Y60733D02*X262888Y61233D01*
X263888D01*
X264388Y60733D01*
Y57733D01*
X263888Y57233D02*X264388Y57733D01*
X262888Y57233D02*X263888D01*
X262388Y58233D02*X264388Y60233D01*
X265588Y61233D02*X267588D01*
X265588D02*Y59233D01*
X266088Y59733D01*
X267088D01*
X267588Y59233D01*
Y57733D01*
X267088Y57233D02*X267588Y57733D01*
X266088Y57233D02*X267088D01*
X265588Y57733D02*X266088Y57233D01*
X459671Y108648D02*Y107348D01*
X458971Y106648D02*X459671Y107348D01*
X456371Y106648D02*X458971D01*
X456371D02*X455671Y107348D01*
Y108648D02*Y107348D01*
X456171Y109848D02*X459171D01*
X456171D02*X455671Y110348D01*
Y111348D02*Y110348D01*
Y111348D02*X456171Y111848D01*
X459171D01*
X459671Y111348D02*X459171Y111848D01*
X459671Y111348D02*Y110348D01*
X459171Y109848D02*X459671Y110348D01*
X455671Y113048D02*X459671D01*
X455671D02*X459671Y115548D01*
X455671D02*X459671D01*
X455671Y116748D02*X459671D01*
X455671D02*X459671Y119248D01*
X455671D02*X459671D01*
X456171Y120448D02*X455671Y120948D01*
Y122448D02*Y120948D01*
Y122448D02*X456171Y122948D01*
X457171D01*
X459671Y120448D02*X457171Y122948D01*
X459671D02*Y120448D01*
X459171Y124148D02*X459671Y124648D01*
X456171Y124148D02*X459171D01*
X456171D02*X455671Y124648D01*
Y125648D02*Y124648D01*
Y125648D02*X456171Y126148D01*
X459171D01*
X459671Y125648D02*X459171Y126148D01*
X459671Y125648D02*Y124648D01*
X458671Y124148D02*X456671Y126148D01*
X456471Y127348D02*X455671Y128148D01*
X459671D01*
Y128848D02*Y127348D01*
X433223Y93664D02*X435223D01*
X435723Y93164D01*
Y92164D01*
X435223Y91664D02*X435723Y92164D01*
X433723Y91664D02*X435223D01*
X433723Y93664D02*Y89664D01*
X434523Y91664D02*X435723Y89664D01*
X436923Y93164D02*X437423Y93664D01*
X438923D01*
X439423Y93164D01*
Y92164D01*
X436923Y89664D02*X439423Y92164D01*
X436923Y89664D02*X439423D01*
X440623Y90164D02*X441123Y89664D01*
X440623Y93164D02*Y90164D01*
Y93164D02*X441123Y93664D01*
X442123D01*
X442623Y93164D01*
Y90164D01*
X442123Y89664D02*X442623Y90164D01*
X441123Y89664D02*X442123D01*
X440623Y90664D02*X442623Y92664D01*
X443823Y91164D02*X445823Y93664D01*
X443823Y91164D02*X446323D01*
X445823Y93664D02*Y89664D01*
X432223Y108664D02*X434223D01*
X434723Y108164D01*
Y107164D01*
X434223Y106664D02*X434723Y107164D01*
X432723Y106664D02*X434223D01*
X432723Y108664D02*Y104664D01*
X433523Y106664D02*X434723Y104664D01*
X435923Y108164D02*X436423Y108664D01*
X437923D01*
X438423Y108164D01*
Y107164D01*
X435923Y104664D02*X438423Y107164D01*
X435923Y104664D02*X438423D01*
X439623Y105164D02*X440123Y104664D01*
X439623Y108164D02*Y105164D01*
Y108164D02*X440123Y108664D01*
X441123D01*
X441623Y108164D01*
Y105164D01*
X441123Y104664D02*X441623Y105164D01*
X440123Y104664D02*X441123D01*
X439623Y105664D02*X441623Y107664D01*
X442823Y108164D02*X443323Y108664D01*
X444323D01*
X444823Y108164D01*
X444323Y104664D02*X444823Y105164D01*
X443323Y104664D02*X444323D01*
X442823Y105164D02*X443323Y104664D01*
Y106864D02*X444323D01*
X444823Y108164D02*Y107364D01*
Y106364D02*Y105164D01*
Y106364D02*X444323Y106864D01*
X444823Y107364D02*X444323Y106864D01*
X465500Y158000D02*Y154000D01*
X466800Y158000D02*X467500Y157300D01*
Y154700D01*
X466800Y154000D02*X467500Y154700D01*
X465000Y154000D02*X466800D01*
X465000Y158000D02*X466800D01*
X468700Y157500D02*X469200Y158000D01*
X470700D01*
X471200Y157500D01*
Y156500D01*
X468700Y154000D02*X471200Y156500D01*
X468700Y154000D02*X471200D01*
X472400Y154500D02*X472900Y154000D01*
X472400Y157500D02*Y154500D01*
Y157500D02*X472900Y158000D01*
X473900D01*
X474400Y157500D01*
Y154500D01*
X473900Y154000D02*X474400Y154500D01*
X472900Y154000D02*X473900D01*
X472400Y155000D02*X474400Y157000D01*
X475600Y157200D02*X476400Y158000D01*
Y154000D01*
X475600D02*X477100D01*
X434264Y139777D02*X436264D01*
X436764Y139277D01*
Y138277D01*
X436264Y137777D02*X436764Y138277D01*
X434764Y137777D02*X436264D01*
X434764Y139777D02*Y135777D01*
X435564Y137777D02*X436764Y135777D01*
X437964Y139277D02*X438464Y139777D01*
X439964D01*
X440464Y139277D01*
Y138277D01*
X437964Y135777D02*X440464Y138277D01*
X437964Y135777D02*X440464D01*
X441664Y136277D02*X442164Y135777D01*
X441664Y139277D02*Y136277D01*
Y139277D02*X442164Y139777D01*
X443164D01*
X443664Y139277D01*
Y136277D01*
X443164Y135777D02*X443664Y136277D01*
X442164Y135777D02*X443164D01*
X441664Y136777D02*X443664Y138777D01*
X445364Y135777D02*X447364Y139777D01*
X444864D02*X447364D01*
X327923Y134564D02*X329223D01*
X327223Y135264D02*X327923Y134564D01*
X327223Y137864D02*Y135264D01*
Y137864D02*X327923Y138564D01*
X329223D01*
X330423Y138064D02*X330923Y138564D01*
X332423D01*
X332923Y138064D01*
Y137064D01*
X330423Y134564D02*X332923Y137064D01*
X330423Y134564D02*X332923D01*
X334123Y135064D02*X334623Y134564D01*
X334123Y138064D02*Y135064D01*
Y138064D02*X334623Y138564D01*
X335623D01*
X336123Y138064D01*
Y135064D01*
X335623Y134564D02*X336123Y135064D01*
X334623Y134564D02*X335623D01*
X334123Y135564D02*X336123Y137564D01*
X337323Y137764D02*X338123Y138564D01*
Y134564D01*
X337323D02*X338823D01*
X391277Y135736D02*Y132736D01*
Y135736D02*X391777Y136236D01*
X392777D01*
X393277Y135736D01*
Y133236D01*
X392277Y132236D02*X393277Y133236D01*
X391777Y132236D02*X392277D01*
X391277Y132736D02*X391777Y132236D01*
X392277Y133736D02*X393277Y132236D01*
X394477Y135736D02*X394977Y136236D01*
X396477D01*
X396977Y135736D01*
Y134736D01*
X394477Y132236D02*X396977Y134736D01*
X394477Y132236D02*X396977D01*
X398177Y132736D02*X398677Y132236D01*
X398177Y135736D02*Y132736D01*
Y135736D02*X398677Y136236D01*
X399677D01*
X400177Y135736D01*
Y132736D01*
X399677Y132236D02*X400177Y132736D01*
X398677Y132236D02*X399677D01*
X398177Y133236D02*X400177Y135236D01*
X401377Y135736D02*X401877Y136236D01*
X403377D01*
X403877Y135736D01*
Y134736D01*
X401377Y132236D02*X403877Y134736D01*
X401377Y132236D02*X403877D01*
X254423Y120164D02*X255723D01*
X253723Y120864D02*X254423Y120164D01*
X253723Y123464D02*Y120864D01*
Y123464D02*X254423Y124164D01*
X255723D01*
X256923Y123364D02*X257723Y124164D01*
Y120164D01*
X256923D02*X258423D01*
X259623Y120664D02*X260123Y120164D01*
X259623Y123664D02*Y120664D01*
Y123664D02*X260123Y124164D01*
X261123D01*
X261623Y123664D01*
Y120664D01*
X261123Y120164D02*X261623Y120664D01*
X260123Y120164D02*X261123D01*
X259623Y121164D02*X261623Y123164D01*
X262823Y123664D02*X263323Y124164D01*
X264323D01*
X264823Y123664D01*
X264323Y120164D02*X264823Y120664D01*
X263323Y120164D02*X264323D01*
X262823Y120664D02*X263323Y120164D01*
Y122364D02*X264323D01*
X264823Y123664D02*Y122864D01*
Y121864D02*Y120664D01*
Y121864D02*X264323Y122364D01*
X264823Y122864D02*X264323Y122364D01*
X296764Y154277D02*X298764D01*
X299264Y153777D01*
Y152777D01*
X298764Y152277D02*X299264Y152777D01*
X297264Y152277D02*X298764D01*
X297264Y154277D02*Y150277D01*
X298064Y152277D02*X299264Y150277D01*
X300464Y153777D02*X300964Y154277D01*
X302464D01*
X302964Y153777D01*
Y152777D01*
X300464Y150277D02*X302964Y152777D01*
X300464Y150277D02*X302964D01*
X304164Y150777D02*X304664Y150277D01*
X304164Y153777D02*Y150777D01*
Y153777D02*X304664Y154277D01*
X305664D01*
X306164Y153777D01*
Y150777D01*
X305664Y150277D02*X306164Y150777D01*
X304664Y150277D02*X305664D01*
X304164Y151277D02*X306164Y153277D01*
X308864Y154277D02*X309364Y153777D01*
X307864Y154277D02*X308864D01*
X307364Y153777D02*X307864Y154277D01*
X307364Y153777D02*Y150777D01*
X307864Y150277D01*
X308864Y152477D02*X309364Y151977D01*
X307364Y152477D02*X308864D01*
X307864Y150277D02*X308864D01*
X309364Y150777D01*
Y151977D02*Y150777D01*
X339723Y175664D02*Y172664D01*
Y175664D02*X340223Y176164D01*
X341223D01*
X341723Y175664D01*
Y173164D01*
X340723Y172164D02*X341723Y173164D01*
X340223Y172164D02*X340723D01*
X339723Y172664D02*X340223Y172164D01*
X340723Y173664D02*X341723Y172164D01*
X342923Y175664D02*X343423Y176164D01*
X344923D01*
X345423Y175664D01*
Y174664D01*
X342923Y172164D02*X345423Y174664D01*
X342923Y172164D02*X345423D01*
X346623Y172664D02*X347123Y172164D01*
X346623Y175664D02*Y172664D01*
Y175664D02*X347123Y176164D01*
X348123D01*
X348623Y175664D01*
Y172664D01*
X348123Y172164D02*X348623Y172664D01*
X347123Y172164D02*X348123D01*
X346623Y173164D02*X348623Y175164D01*
X349823Y175664D02*X350323Y176164D01*
X351323D01*
X351823Y175664D01*
X351323Y172164D02*X351823Y172664D01*
X350323Y172164D02*X351323D01*
X349823Y172664D02*X350323Y172164D01*
Y174364D02*X351323D01*
X351823Y175664D02*Y174864D01*
Y173864D02*Y172664D01*
Y173864D02*X351323Y174364D01*
X351823Y174864D02*X351323Y174364D01*
X413723Y175664D02*Y172664D01*
Y175664D02*X414223Y176164D01*
X415223D01*
X415723Y175664D01*
Y173164D01*
X414723Y172164D02*X415723Y173164D01*
X414223Y172164D02*X414723D01*
X413723Y172664D02*X414223Y172164D01*
X414723Y173664D02*X415723Y172164D01*
X416923Y175664D02*X417423Y176164D01*
X418923D01*
X419423Y175664D01*
Y174664D01*
X416923Y172164D02*X419423Y174664D01*
X416923Y172164D02*X419423D01*
X420623Y172664D02*X421123Y172164D01*
X420623Y175664D02*Y172664D01*
Y175664D02*X421123Y176164D01*
X422123D01*
X422623Y175664D01*
Y172664D01*
X422123Y172164D02*X422623Y172664D01*
X421123Y172164D02*X422123D01*
X420623Y173164D02*X422623Y175164D01*
X423823Y176164D02*X425823D01*
X423823D02*Y174164D01*
X424323Y174664D01*
X425323D01*
X425823Y174164D01*
Y172664D01*
X425323Y172164D02*X425823Y172664D01*
X424323Y172164D02*X425323D01*
X423823Y172664D02*X424323Y172164D01*
X267638Y190173D02*X269638D01*
X270138Y189673D01*
Y188673D01*
X269638Y188173D02*X270138Y188673D01*
X268138Y188173D02*X269638D01*
X268138Y190173D02*Y186173D01*
X268938Y188173D02*X270138Y186173D01*
X271338Y189673D02*X271838Y190173D01*
X273338D01*
X273838Y189673D01*
Y188673D01*
X271338Y186173D02*X273838Y188673D01*
X271338Y186173D02*X273838D01*
X275038Y186673D02*X275538Y186173D01*
X275038Y189673D02*Y186673D01*
Y189673D02*X275538Y190173D01*
X276538D01*
X277038Y189673D01*
Y186673D01*
X276538Y186173D02*X277038Y186673D01*
X275538Y186173D02*X276538D01*
X275038Y187173D02*X277038Y189173D01*
X278238Y189673D02*X278738Y190173D01*
X280238D01*
X280738Y189673D01*
Y188673D01*
X278238Y186173D02*X280738Y188673D01*
X278238Y186173D02*X280738D01*
X330423Y77964D02*X331723D01*
X329723Y78664D02*X330423Y77964D01*
X329723Y81264D02*Y78664D01*
Y81264D02*X330423Y81964D01*
X331723D01*
X332923Y81464D02*X333423Y81964D01*
X334923D01*
X335423Y81464D01*
Y80464D01*
X332923Y77964D02*X335423Y80464D01*
X332923Y77964D02*X335423D01*
X336623Y78464D02*X337123Y77964D01*
X336623Y81464D02*Y78464D01*
Y81464D02*X337123Y81964D01*
X338123D01*
X338623Y81464D01*
Y78464D01*
X338123Y77964D02*X338623Y78464D01*
X337123Y77964D02*X338123D01*
X336623Y78964D02*X338623Y80964D01*
X339823Y81464D02*X340323Y81964D01*
X341823D01*
X342323Y81464D01*
Y80464D01*
X339823Y77964D02*X342323Y80464D01*
X339823Y77964D02*X342323D01*
X354973Y102764D02*Y99264D01*
X355473Y98764D01*
X356473D01*
X356973Y99264D01*
Y102764D02*Y99264D01*
X358173Y102264D02*X358673Y102764D01*
X360173D01*
X360673Y102264D01*
Y101264D01*
X358173Y98764D02*X360673Y101264D01*
X358173Y98764D02*X360673D01*
X361873Y99264D02*X362373Y98764D01*
X361873Y102264D02*Y99264D01*
Y102264D02*X362373Y102764D01*
X363373D01*
X363873Y102264D01*
Y99264D01*
X363373Y98764D02*X363873Y99264D01*
X362373Y98764D02*X363373D01*
X361873Y99764D02*X363873Y101764D01*
X365073Y101964D02*X365873Y102764D01*
Y98764D01*
X365073D02*X366573D01*
X288264Y104177D02*X290264D01*
X290764Y103677D01*
Y102677D01*
X290264Y102177D02*X290764Y102677D01*
X288764Y102177D02*X290264D01*
X288764Y104177D02*Y100177D01*
X289564Y102177D02*X290764Y100177D01*
X291964Y103677D02*X292464Y104177D01*
X293964D01*
X294464Y103677D01*
Y102677D01*
X291964Y100177D02*X294464Y102677D01*
X291964Y100177D02*X294464D01*
X295664Y100677D02*X296164Y100177D01*
X295664Y103677D02*Y100677D01*
Y103677D02*X296164Y104177D01*
X297164D01*
X297664Y103677D01*
Y100677D01*
X297164Y100177D02*X297664Y100677D01*
X296164Y100177D02*X297164D01*
X295664Y101177D02*X297664Y103177D01*
X298864Y103377D02*X299664Y104177D01*
Y100177D01*
X298864D02*X300364D01*
X254411Y106576D02*Y103076D01*
X254911Y102576D01*
X255911D01*
X256411Y103076D01*
Y106576D02*Y103076D01*
X257611Y105776D02*X258411Y106576D01*
Y102576D01*
X257611D02*X259111D01*
X260311Y103076D02*X260811Y102576D01*
X260311Y106076D02*Y103076D01*
Y106076D02*X260811Y106576D01*
X261811D01*
X262311Y106076D01*
Y103076D01*
X261811Y102576D02*X262311Y103076D01*
X260811Y102576D02*X261811D01*
X260311Y103576D02*X262311Y105576D01*
X263511Y106076D02*X264011Y106576D01*
X265011D01*
X265511Y106076D01*
X265011Y102576D02*X265511Y103076D01*
X264011Y102576D02*X265011D01*
X263511Y103076D02*X264011Y102576D01*
Y104776D02*X265011D01*
X265511Y106076D02*Y105276D01*
Y104276D02*Y103076D01*
Y104276D02*X265011Y104776D01*
X265511Y105276D02*X265011Y104776D01*
M02*
