M48
INCH
T70C0.125
T69C0.035
T68C0.020
T67C0.047
T66C0.042
T65C0.028
T64C0.040
T63C0.030
T62C0.060
T61C0.059
T60C0.055
%
T68
X008800Y003900
X014600Y008800
X026172Y006476
X026272Y008276
X027772Y008676
X028972Y009176
X030872Y010376
X035772Y012376
T65
X011400Y006400
X011400Y005400
X011400Y004400
X011400Y003400
X014400Y006400
X014400Y005400
X014400Y004400
X014400Y003400
T63
X005872Y011576
X005872Y010376
X005872Y008276
X005900Y012600
X006199Y006950
X006972Y004976
X007972Y004976
X008199Y006950
X009872Y010376
X009872Y008276
X010872Y011576
X010900Y012600
X013400Y014400
X013400Y009400
X015100Y014400
X015100Y009400
X017800Y003500
X017800Y002500
X025049Y006483
X025072Y011476
X027049Y006483
X027072Y011476
X030772Y012976
X030772Y007976
X032222Y012816
X032672Y007276
X034222Y012816
X034672Y007276
X037772Y010576
X037772Y009276
X042772Y010576
X042772Y009276
T69
X008200Y009400
X010672Y007676
X012000Y010600
X021600Y002500
X022400Y004400
X030772Y003376
X037172Y008176
X037700Y011700
X043100Y006500
X043600Y012300
X045250Y016800
T64
X011900Y001600
X013900Y001600
X032372Y004976
X032472Y015376
X034372Y004976
X034472Y015376
X042672Y004976
X042872Y015376
X044672Y004976
X044872Y015376
X048900Y016900
X048900Y014900
X048900Y005500
X048900Y003500
T66
X016700Y009100
X016700Y008100
X016700Y007100
T67
X026016Y013763
X027000Y017700
X027984Y013763
T60
X001790Y015840
X001790Y013840
X001790Y011840
X001791Y008306
X001791Y006306
X001791Y004306
X025572Y001876
X027572Y001876
X029572Y001876
X048072Y012076
X048072Y010076
X048072Y008076
T61
X006000Y017800
X014898Y017800
T62
X005950Y001600
X006950Y001600
X007950Y001600
X020200Y017180
X020200Y014990
X020200Y012800
X020200Y009800
X020200Y007610
X020200Y005420
X032272Y018776
X032272Y001476
X034462Y018776
X034462Y001476
X036652Y018776
X036652Y001476
X037372Y015376
X037472Y004976
X038372Y015376
X038472Y004976
X039372Y015376
X039472Y004976
X039672Y018776
X039672Y001476
X041862Y018776
X041862Y001476
X044052Y018776
X044052Y001476
T70
X001750Y018450
X001750Y001700
X046250Y018700
X046250Y001450
M30
